<?xml version="1.0" encoding="UTF-8"?><svg id="Layer_2" xmlns="http://www.w3.org/2000/svg" viewBox="0 0 491.95 493.13"><defs><style>.cls-1{fill:#6200ee;}</style></defs><g id="Graphics"><g><path class="cls-1" d="M226.34,493.13h56.57c16-47.43,42.9-91.99,80.69-129.79,37.41-37.41,81.46-64.13,128.35-80.19v-56.66c-60.98,17.71-118.49,50.57-166.56,98.64-48.45,48.45-81.45,106.48-99.05,168Z"/><path class="cls-1" d="M285.55,285.3c59.14-59.14,130.77-98.21,206.39-117.19v-55.53c-89.64,19.93-174.86,64.76-244.6,134.51-70.12,70.12-115.05,155.87-134.83,246.04h55.49c18.85-76.16,58.03-148.31,117.55-207.83Z"/><path class="cls-1" d="M491.95,55.01V0c-118.19,21.34-231.29,77.69-322.65,169.05C77.57,260.77,21.15,374.42,0,493.13H54.98c20.54-104.74,71.38-204.72,152.53-285.87C288.29,126.48,387.72,75.73,491.95,55.01Z"/></g></g></svg>