<?xml version="1.0" standalone="no"?>
<!DOCTYPE svg PUBLIC "-//W3C//DTD SVG 20010904//EN"
 "http://www.w3.org/TR/2001/REC-SVG-20010904/DTD/svg10.dtd">
<svg version="1.0" xmlns="http://www.w3.org/2000/svg"
 width="1000.000000pt" height="1000.000000pt" viewBox="0 0 1000.000000 1000.000000"
 preserveAspectRatio="xMidYMid meet">
<metadata>
Created by potrace 1.14, written by Peter Selinger 2001-2017
</metadata>
<g transform="translate(0.000000,1000.000000) scale(0.100000,-0.100000)"
fill="#000000" stroke="none">
<path d="M2079 9278 c-160 -110 -361 -264 -452 -348 l-39 -35 24 -18 c13 -10
39 -33 58 -50 159 -143 493 -389 675 -496 165 -98 230 -134 375 -206 183 -92
317 -151 490 -215 63 -23 124 -46 135 -51 46 -20 402 -121 475 -135 13 -3 60
-13 105 -24 44 -10 125 -26 180 -35 55 -9 111 -18 125 -20 104 -18 330 -42
475 -50 83 -5 520 -6 585 -1 172 13 247 19 260 21 8 2 44 6 80 10 36 4 73 9
84 11 10 2 44 6 75 10 31 3 59 8 62 10 4 2 24 6 45 9 22 3 62 10 89 16 28 6
63 13 79 16 61 10 307 73 420 108 515 156 1020 404 1456 714 167 118 481 375
470 383 -3 3 -37 31 -75 64 -39 32 -88 73 -109 89 -21 17 -65 50 -97 75 -32
25 -88 65 -124 90 -37 25 -72 50 -78 55 -32 28 -113 75 -122 71 -6 -2 -74 -52
-151 -111 -406 -314 -839 -542 -1319 -698 -179 -58 -410 -115 -575 -143 -25
-4 -47 -8 -50 -9 -10 -2 -106 -17 -135 -20 -16 -2 -46 -6 -65 -9 -19 -3 -73
-8 -120 -11 -47 -4 -101 -9 -120 -11 -40 -4 -487 -4 -540 0 -19 2 -75 6 -124
11 -50 4 -97 8 -105 10 -9 1 -41 6 -72 9 -31 4 -66 8 -77 11 -26 5 -91 15
-122 20 -72 11 -286 60 -408 95 -510 144 -996 385 -1432 709 -41 31 -77 58
-80 61 -21 22 -110 90 -117 90 -5 0 -57 -32 -114 -72z"/>
<path d="M1003 8297 c-32 -40 -60 -74 -63 -77 -8 -8 -133 -175 -150 -200 -8
-13 -24 -35 -36 -49 -34 -43 -134 -199 -134 -209 0 -12 185 -170 345 -295 539
-419 1153 -759 1790 -989 96 -35 301 -102 345 -113 8 -3 80 -22 159 -45 239
-66 586 -139 796 -165 28 -4 64 -9 80 -11 17 -3 48 -7 70 -9 22 -2 65 -7 95
-10 77 -9 131 -13 235 -20 50 -4 117 -8 150 -11 70 -5 571 -5 630 0 22 2 91 7
153 11 63 3 121 8 130 10 9 1 58 6 107 11 50 4 92 8 95 9 3 0 32 5 65 9 79 10
123 16 160 22 17 3 45 7 62 10 45 5 373 72 448 90 33 8 67 16 75 18 694 167
1451 505 2070 924 225 153 524 384 672 520 l37 34 -61 92 c-66 99 -155 223
-175 244 -7 7 -13 17 -13 20 0 4 -10 18 -23 32 -12 14 -55 67 -95 118 -41 50
-78 92 -82 92 -5 0 -48 -35 -97 -78 -557 -490 -1218 -876 -1918 -1119 -212
-74 -622 -187 -750 -207 -22 -4 -87 -15 -145 -26 -136 -25 -231 -39 -385 -55
-33 -4 -70 -8 -83 -10 -75 -12 -295 -20 -557 -20 -269 0 -389 4 -565 20 -74 7
-246 28 -320 40 -14 2 -54 9 -90 14 -36 6 -76 13 -90 16 -14 3 -41 8 -60 11
-67 11 -366 82 -475 113 -715 205 -1352 524 -1935 969 -111 85 -266 211 -310
252 -9 8 -35 32 -57 52 l-41 37 -59 -72z"/>
<path d="M257 7092 c-9 -15 -100 -240 -129 -317 -31 -86 -128 -391 -128 -404
0 -5 17 -20 37 -34 21 -14 50 -36 65 -49 103 -88 515 -370 738 -505 260 -156
616 -344 830 -438 47 -20 103 -45 126 -55 153 -69 569 -227 727 -276 31 -10
54 -21 50 -24 -5 -4 -53 -21 -108 -39 -607 -192 -1304 -530 -1895 -919 -196
-130 -570 -403 -570 -417 0 -11 70 -235 105 -335 49 -140 141 -370 153 -382 4
-4 46 24 92 63 129 108 418 322 585 435 367 247 784 474 1180 641 160 68 176
75 190 79 6 1 57 21 115 44 58 23 171 63 252 90 178 60 364 114 568 166 14 3
135 31 170 39 64 14 322 65 350 69 19 3 95 14 167 25 73 11 165 23 205 27 40
3 75 7 78 9 3 2 48 6 100 10 52 4 103 9 112 10 126 24 998 24 1158 0 14 -2 65
-6 114 -10 50 -4 98 -8 107 -10 10 -2 49 -7 86 -10 37 -4 75 -9 85 -10 9 -2
38 -6 65 -10 26 -4 86 -13 133 -21 47 -7 103 -16 125 -20 71 -10 454 -92 465
-99 4 -2 18 -6 32 -9 179 -32 717 -209 1019 -335 191 -81 210 -89 429 -198
250 -123 358 -183 570 -313 104 -63 233 -148 354 -230 50 -34 231 -165 236
-170 3 -4 42 -34 86 -68 45 -34 88 -67 95 -74 8 -7 34 -29 59 -48 24 -19 56
-45 69 -58 24 -22 26 -22 38 -6 46 63 264 688 248 714 -13 21 -436 333 -523
385 -9 6 -57 37 -107 69 -140 91 -153 99 -270 168 -269 159 -561 309 -835 429
-74 33 -144 64 -155 68 -99 44 -463 179 -590 220 -38 12 -77 25 -85 28 -8 2
73 35 180 72 656 228 1219 503 1790 874 69 45 130 85 135 89 6 5 70 51 143
103 190 135 310 228 317 244 15 38 -228 721 -257 721 -6 0 -47 -30 -91 -67
-45 -38 -89 -73 -97 -80 -104 -83 -144 -113 -149 -113 -3 0 -17 -10 -31 -22
-70 -64 -413 -296 -605 -410 -375 -224 -789 -425 -1145 -557 -63 -24 -124 -47
-135 -52 -146 -62 -776 -242 -927 -264 -24 -4 -45 -8 -49 -10 -3 -2 -21 -7
-40 -10 -19 -3 -52 -10 -74 -15 -22 -5 -58 -11 -80 -14 -22 -4 -66 -11 -98
-17 -32 -5 -70 -12 -85 -14 -49 -7 -107 -15 -142 -21 -19 -3 -55 -8 -80 -10
-25 -3 -56 -6 -70 -9 -14 -2 -61 -7 -105 -10 -44 -4 -91 -8 -105 -10 -30 -5
-199 -15 -335 -21 -113 -4 -464 -4 -600 0 -114 4 -252 14 -430 31 -123 12
-406 49 -490 65 -27 5 -66 12 -85 15 -91 14 -352 71 -510 111 -378 96 -761
228 -1110 381 -615 270 -1187 621 -1702 1045 -59 48 -109 84 -111 80z"/>
<path d="M4748 3895 c-2 -2 -66 -6 -143 -9 -77 -3 -151 -8 -165 -10 -14 -2
-59 -7 -100 -11 -41 -3 -88 -8 -105 -10 -16 -2 -52 -7 -80 -10 -74 -9 -110
-14 -210 -31 -49 -8 -106 -17 -125 -20 -19 -3 -54 -10 -78 -15 -23 -5 -57 -11
-75 -14 -17 -3 -88 -19 -157 -36 -69 -16 -134 -32 -145 -34 -40 -9 -232 -63
-315 -89 -47 -15 -105 -33 -130 -41 -25 -7 -106 -36 -181 -63 -576 -212 -1154
-521 -1632 -875 -113 -84 -362 -282 -402 -320 -11 -10 -35 -30 -52 -44 -18
-14 -33 -31 -33 -37 0 -30 295 -440 402 -559 l43 -47 46 42 c53 49 62 56 179
154 80 67 168 136 249 196 79 59 412 279 504 332 311 182 662 347 958 451 74
26 143 51 154 55 91 38 529 154 695 185 8 1 33 6 55 10 47 9 67 12 115 20 19
2 46 7 60 10 14 3 43 8 65 10 48 6 111 15 145 20 14 2 59 7 100 10 41 4 82 9
91 10 91 18 690 25 884 11 168 -13 177 -13 260 -21 44 -4 82 -9 85 -10 3 -2
34 -6 70 -10 36 -4 74 -9 85 -11 11 -2 38 -6 60 -9 22 -3 47 -7 55 -10 8 -2
33 -7 55 -10 23 -3 50 -7 60 -9 147 -30 203 -43 340 -77 88 -22 174 -44 190
-49 430 -134 686 -236 1010 -400 451 -229 835 -489 1226 -833 l77 -67 54 62
c82 94 211 267 310 413 l88 130 -33 29 c-641 566 -1399 1008 -2204 1287 -420
144 -903 257 -1313 304 -25 3 -61 7 -80 10 -82 10 -230 24 -333 31 -78 5 -674
13 -679 9z"/>
<path d="M4738 2395 c-2 -2 -50 -6 -108 -9 -58 -3 -116 -8 -130 -11 -14 -2
-50 -6 -80 -9 -66 -6 -116 -13 -235 -32 -49 -8 -103 -17 -120 -20 -57 -9 -180
-35 -240 -51 -33 -8 -70 -17 -83 -19 -126 -24 -517 -155 -732 -247 -14 -6 -27
-11 -30 -12 -57 -17 -427 -205 -560 -285 -293 -176 -603 -402 -783 -570 l-48
-45 73 -61 c188 -158 501 -384 530 -384 8 0 32 15 54 33 372 313 891 600 1379
762 254 85 560 156 795 185 47 6 99 13 115 15 184 26 766 26 925 1 14 -2 52
-8 85 -12 99 -12 158 -20 210 -29 688 -122 1351 -418 1911 -852 73 -57 139
-103 146 -103 31 0 434 297 576 426 l23 21 -53 47 c-29 26 -64 57 -78 70 -183
162 -562 424 -811 561 -110 60 -367 186 -449 220 -36 14 -79 33 -97 41 -93 43
-509 182 -592 199 -9 2 -63 15 -121 30 -58 15 -112 28 -120 30 -191 37 -326
60 -415 70 -27 3 -61 8 -75 10 -14 2 -61 7 -105 11 -44 4 -93 9 -110 11 -35 5
-642 12 -647 8z"/>
</g>
</svg>
