<?xml version="1.0" standalone="no"?>
<!DOCTYPE svg PUBLIC "-//W3C//DTD SVG 20010904//EN"
 "http://www.w3.org/TR/2001/REC-SVG-20010904/DTD/svg10.dtd">
<svg version="1.0" xmlns="http://www.w3.org/2000/svg"
 width="916.000000pt" height="916.000000pt" viewBox="0 0 916.000000 916.000000"
 preserveAspectRatio="xMidYMid meet">
<metadata>
Created by potrace 1.14, written by Peter Selinger 2001-2017
</metadata>
<g transform="translate(0.000000,916.000000) scale(0.100000,-0.100000)"
fill="#000000" stroke="none">
<path d="M1955 8535 c-27 -19 -54 -38 -60 -42 -5 -4 -30 -21 -55 -38 -25 -16
-47 -32 -50 -35 -3 -3 -39 -30 -80 -61 -41 -31 -115 -89 -163 -129 l-89 -74
49 -45 c27 -25 70 -63 96 -84 25 -21 52 -43 59 -50 31 -30 253 -190 348 -252
58 -38 124 -81 147 -97 23 -15 44 -28 47 -28 3 0 39 -20 81 -45 98 -58 352
-185 358 -179 2 2 10 -2 17 -11 7 -8 17 -15 22 -15 5 0 40 -13 76 -29 63 -26
100 -42 112 -46 3 -1 16 -6 30 -12 14 -6 43 -16 65 -24 22 -7 44 -17 50 -21 5
-4 18 -8 30 -8 12 0 26 -5 33 -12 7 -7 12 -8 12 -4 0 5 7 3 15 -4 8 -7 15 -9
15 -6 0 4 9 2 21 -4 11 -6 28 -13 37 -15 9 -2 64 -18 122 -35 104 -30 217 -59
255 -65 11 -1 43 -8 70 -15 28 -6 64 -13 80 -15 31 -4 70 -12 70 -15 0 -1 14
-3 30 -5 27 -3 60 -8 145 -21 14 -2 52 -6 85 -9 33 -3 73 -8 89 -11 62 -11
220 -16 456 -17 224 0 316 4 455 18 28 3 73 7 100 10 28 3 61 7 75 9 14 2 50
7 80 11 60 8 85 13 85 15 0 1 9 3 20 4 51 6 133 22 138 26 1 1 15 4 31 6 30 5
170 39 281 69 66 18 238 72 270 85 11 4 61 23 110 40 50 18 108 41 130 50 22
10 60 26 85 36 43 18 398 194 430 214 8 5 69 42 135 82 66 40 125 76 130 80 6
5 60 43 120 85 96 66 134 94 181 132 6 5 49 39 95 76 46 37 91 75 100 85 9 9
30 27 45 39 l29 23 -26 21 c-14 12 -45 39 -70 60 -73 63 -268 210 -366 276
l-93 62 -63 -53 c-35 -29 -74 -60 -87 -68 -12 -8 -28 -19 -34 -25 -56 -50
-366 -255 -385 -255 -5 0 -16 -6 -23 -12 -7 -7 -35 -25 -63 -39 -27 -14 -80
-43 -118 -63 -37 -20 -74 -36 -82 -36 -8 0 -15 -4 -15 -10 0 -5 -9 -10 -20
-10 -11 0 -20 -4 -20 -10 0 -5 -6 -10 -14 -10 -8 0 -44 -14 -81 -31 -97 -45
-415 -158 -489 -174 -11 -2 -48 -12 -81 -21 -33 -9 -68 -18 -78 -20 -10 -2
-26 -5 -35 -8 -21 -6 -50 -12 -182 -35 -150 -27 -189 -32 -350 -47 -120 -11
-470 -21 -470 -14 0 3 -30 6 -68 6 -83 2 -240 12 -267 18 -11 2 -49 7 -85 11
-36 4 -74 9 -85 12 -29 6 -66 13 -100 17 -16 2 -37 6 -45 8 -13 5 -207 50
-270 63 -14 3 -32 8 -40 12 -8 3 -24 8 -34 10 -51 9 -342 114 -431 154 -27 12
-52 23 -55 24 -45 15 -194 88 -198 98 -2 4 -11 7 -21 7 -9 0 -21 4 -26 9 -6 4
-35 22 -65 38 -120 66 -233 135 -238 146 -2 4 -10 7 -18 7 -8 0 -14 5 -14 10
0 6 -6 10 -12 10 -7 0 -26 11 -42 25 -16 14 -32 25 -36 25 -6 0 -42 25 -95 68
-5 4 -28 21 -50 37 -22 17 -51 40 -65 53 -14 13 -37 31 -52 40 -16 9 -28 20
-28 24 0 14 -13 8 -65 -27z"/>
<path d="M960 7653 c0 -5 -13 -22 -30 -40 -77 -83 -360 -475 -360 -500 0 -6
12 -21 28 -34 101 -89 228 -191 357 -288 83 -62 158 -119 168 -127 9 -8 21
-14 25 -14 5 0 17 -8 28 -19 11 -10 31 -24 44 -31 13 -7 29 -17 34 -22 23 -19
293 -188 301 -188 3 0 22 -11 43 -23 114 -72 550 -289 607 -302 11 -3 119 -51
147 -66 10 -5 26 -9 36 -9 10 0 22 -4 27 -9 27 -25 576 -200 714 -227 12 -3
53 -12 90 -20 98 -23 98 -23 206 -44 146 -28 156 -30 200 -36 48 -6 81 -11
115 -18 14 -2 52 -7 85 -10 33 -4 78 -8 100 -11 211 -24 416 -35 665 -34 271
0 512 14 730 44 19 3 55 7 80 10 25 2 56 7 70 9 14 3 57 9 95 15 39 6 81 13
95 16 14 3 41 8 60 11 19 3 55 10 80 16 25 5 56 12 70 14 14 3 43 10 65 15 22
5 51 12 65 15 14 3 75 19 135 35 61 17 117 32 125 34 8 2 60 18 115 35 55 18
106 32 113 33 6 0 12 5 12 10 0 6 3 8 6 5 3 -3 42 7 87 24 45 16 87 31 92 32
6 2 21 8 35 13 14 6 81 33 150 61 69 28 143 59 165 70 22 11 63 29 90 41 169
74 508 260 675 370 47 31 90 58 95 61 14 7 69 43 75 50 3 3 34 25 70 49 93 64
264 193 268 203 2 4 10 8 18 8 8 0 14 4 14 8 0 4 21 24 48 45 26 20 61 49 79
64 17 16 54 48 82 71 l50 44 -84 124 c-47 68 -91 132 -99 141 -8 10 -42 54
-75 98 -33 44 -76 98 -95 120 -20 22 -36 43 -36 46 0 19 -34 16 -55 -4 -30
-28 -55 -50 -135 -117 -35 -30 -70 -60 -76 -66 -7 -6 -57 -44 -111 -85 -54
-41 -100 -76 -103 -79 -6 -6 -71 -51 -160 -111 -36 -24 -67 -46 -70 -49 -3 -3
-39 -26 -80 -50 -41 -24 -77 -47 -80 -50 -3 -3 -18 -12 -35 -20 -16 -8 -32
-18 -35 -21 -6 -7 -148 -85 -205 -113 -22 -11 -43 -24 -46 -29 -3 -5 -10 -9
-15 -9 -5 -1 -65 -28 -134 -61 -69 -32 -129 -60 -135 -61 -5 -2 -30 -12 -55
-23 -38 -16 -113 -47 -205 -83 -81 -32 -302 -107 -334 -114 -9 -2 -23 -6 -31
-9 -17 -7 -215 -60 -270 -73 -19 -4 -39 -9 -45 -10 -5 -1 -32 -7 -60 -14 -27
-6 -60 -14 -72 -16 -13 -2 -34 -6 -48 -9 -31 -6 -71 -14 -110 -20 -16 -3 -39
-7 -50 -9 -11 -2 -42 -7 -70 -10 -27 -4 -57 -9 -65 -11 -8 -2 -44 -7 -80 -10
-36 -4 -78 -8 -95 -11 -16 -2 -70 -6 -120 -9 -49 -3 -112 -8 -140 -11 -61 -6
-536 -6 -625 1 -169 12 -198 14 -235 19 -22 2 -67 8 -100 11 -73 9 -92 11
-175 25 -36 6 -83 13 -105 16 -22 2 -46 7 -54 10 -8 2 -30 7 -50 10 -20 3 -54
10 -76 16 -22 6 -49 12 -60 14 -11 2 -40 8 -65 14 -25 6 -54 12 -65 14 -11 2
-69 18 -130 36 -60 18 -117 34 -125 35 -21 5 -185 59 -240 80 -25 9 -70 26
-100 37 -78 28 -70 25 -295 123 -237 104 -511 256 -748 414 -71 47 -136 91
-145 96 -26 16 -146 106 -152 114 -3 4 -21 18 -40 31 -33 23 -58 43 -84 65 -6
6 -54 46 -106 90 -52 44 -103 88 -112 98 -19 18 -38 23 -38 10z"/>
<path d="M189 6387 c-26 -61 -57 -143 -70 -182 -13 -38 -28 -73 -34 -77 -5 -4
-7 -8 -3 -8 4 0 0 -19 -8 -42 -9 -24 -17 -47 -18 -53 -2 -5 -6 -17 -9 -25 -3
-8 -13 -41 -21 -72 -9 -32 -19 -64 -22 -72 -3 -9 6 -24 22 -38 14 -13 32 -28
38 -33 13 -12 197 -147 303 -223 40 -29 77 -52 82 -52 5 0 11 -3 13 -7 5 -11
66 -53 77 -53 5 0 11 -3 13 -7 3 -9 96 -73 104 -73 3 0 25 -13 49 -30 24 -16
46 -30 49 -30 3 0 30 -16 60 -35 30 -19 58 -35 62 -35 4 0 15 -6 23 -14 48
-41 654 -345 774 -387 20 -7 37 -17 37 -23 0 -5 3 -6 6 -3 4 3 16 1 28 -5 11
-7 24 -13 29 -14 4 -1 9 -3 12 -4 3 -1 8 -3 13 -5 4 -1 21 -7 37 -14 17 -7 59
-24 95 -37 36 -14 74 -29 85 -34 31 -12 181 -65 273 -96 45 -15 81 -28 80 -30
-2 -1 -39 -14 -83 -29 -44 -14 -87 -29 -95 -32 -8 -4 -17 -7 -20 -7 -3 -1 -18
-6 -35 -13 -16 -6 -79 -29 -140 -51 -60 -22 -155 -59 -210 -82 -55 -23 -115
-47 -132 -53 -18 -6 -33 -13 -33 -17 0 -4 -6 -7 -12 -7 -39 -1 -505 -237 -733
-371 -60 -36 -119 -70 -130 -76 -95 -54 -490 -321 -523 -353 -7 -7 -17 -13
-20 -13 -4 0 -18 -10 -32 -23 -14 -12 -41 -34 -60 -47 -19 -14 -44 -32 -55
-42 -11 -9 -28 -23 -38 -30 -16 -12 -16 -16 -1 -68 9 -30 16 -57 17 -60 0 -3
8 -30 19 -60 11 -30 21 -62 23 -70 4 -19 72 -206 87 -240 6 -14 12 -30 13 -36
2 -5 14 -36 29 -67 14 -32 26 -62 26 -67 0 -16 13 -12 40 13 14 12 54 46 90
75 36 29 75 61 88 72 13 11 37 29 55 42 18 12 38 28 45 35 7 7 16 13 20 13 4
0 25 16 47 35 22 19 45 35 52 35 6 0 13 4 15 8 2 5 32 28 68 53 36 24 67 46
70 49 3 3 28 20 55 38 28 17 55 36 62 42 7 5 24 15 38 22 14 6 25 15 25 20 0
4 4 8 9 8 5 0 56 29 115 65 58 36 108 65 111 65 3 0 22 11 43 23 78 50 355
193 507 262 125 57 385 165 399 165 6 0 16 4 22 9 7 7 63 28 94 36 3 1 12 5
20 8 32 13 289 97 360 117 88 26 219 61 240 65 8 2 15 4 15 5 0 1 8 3 19 5 10
2 39 9 65 15 25 6 55 12 66 14 11 3 62 14 113 25 51 12 110 24 130 27 20 3 68
12 107 19 38 8 73 12 76 9 4 -2 10 0 14 6 4 6 10 8 15 5 5 -3 28 -1 52 4 24 5
70 12 103 15 33 4 71 8 85 11 28 4 99 12 205 21 121 10 165 13 335 19 91 4
187 8 213 9 27 1 50 -1 53 -6 3 -4 12 -4 22 -1 9 4 30 6 47 6 131 -5 368 -15
405 -18 25 -2 77 -6 115 -9 99 -8 176 -15 205 -20 14 -3 48 -7 75 -11 28 -3
79 -10 115 -16 36 -5 81 -12 100 -14 19 -3 46 -8 60 -11 13 -3 38 -7 55 -10
16 -2 41 -6 55 -9 14 -4 39 -8 55 -11 34 -6 179 -38 275 -61 36 -8 76 -17 89
-20 14 -2 28 -6 33 -9 4 -3 50 -16 102 -30 153 -39 516 -161 613 -205 24 -10
47 -19 53 -19 6 0 18 -4 28 -9 26 -14 89 -41 96 -41 19 0 463 -213 578 -278
31 -17 77 -42 101 -55 165 -88 617 -382 682 -444 8 -7 18 -13 23 -13 6 0 12
-3 14 -7 2 -5 30 -28 63 -53 33 -25 62 -47 65 -51 3 -3 14 -12 26 -20 24 -16
104 -82 148 -121 17 -16 33 -28 36 -28 5 0 120 280 124 302 1 7 7 22 13 33 6
11 14 36 18 55 4 19 12 44 18 55 6 11 12 27 14 36 1 9 14 52 27 94 14 42 22
82 20 89 -5 11 -59 56 -104 86 -12 8 -34 25 -48 38 -15 12 -45 35 -67 50 -79
54 -230 161 -242 172 -7 5 -15 10 -18 10 -3 0 -27 15 -53 33 -38 27 -130 84
-332 207 -20 12 -150 84 -225 126 -117 63 -180 94 -192 94 -7 0 -13 3 -13 8 0
6 -54 35 -70 37 -3 0 -37 17 -77 37 -39 20 -74 34 -77 31 -3 -4 -6 -1 -6 5 0
7 -3 11 -7 10 -5 -1 -30 8 -58 21 -45 21 -64 29 -140 62 -134 57 -345 136
-513 191 -67 23 -121 42 -119 44 3 3 265 93 287 99 34 8 327 126 362 145 10 6
22 10 27 10 38 0 733 349 800 401 13 11 28 19 33 19 5 0 33 15 61 33 149 96
249 157 258 157 5 0 9 3 9 8 0 4 21 20 48 37 66 42 308 214 362 258 8 7 33 26
55 42 71 53 69 42 30 172 -20 65 -38 125 -42 133 -3 8 -7 20 -8 25 -4 15 -45
127 -55 150 -5 11 -18 43 -29 70 -40 103 -63 160 -66 164 -3 3 -89 -62 -105
-79 -8 -9 -114 -93 -144 -115 -16 -11 -33 -25 -40 -30 -19 -18 -158 -120 -226
-166 -35 -24 -71 -50 -78 -56 -7 -7 -20 -13 -28 -13 -8 0 -14 -4 -14 -8 0 -8
-126 -89 -290 -188 -95 -57 -92 -56 -172 -98 -40 -21 -85 -47 -100 -58 -16
-11 -28 -17 -28 -14 0 3 -27 -11 -61 -30 -33 -18 -62 -34 -64 -34 -1 0 -63
-29 -136 -64 -164 -78 -334 -150 -499 -211 -140 -53 -410 -143 -446 -149 -13
-3 -27 -7 -32 -10 -21 -13 -466 -122 -532 -131 -14 -1 -25 -4 -25 -5 0 -1 -9
-3 -20 -5 -11 -2 -36 -7 -55 -11 -19 -4 -42 -8 -50 -9 -25 -5 -104 -17 -125
-20 -11 -2 -40 -6 -65 -10 -25 -4 -58 -9 -75 -10 -16 -2 -30 -4 -30 -5 0 -1
-13 -3 -30 -5 -16 -1 -52 -6 -80 -9 -93 -11 -140 -16 -215 -22 -41 -3 -100 -8
-130 -11 -109 -9 -756 -12 -793 -4 -23 6 -37 5 -37 -1 0 -5 -5 -6 -10 -3 -6 3
-36 8 -68 10 -108 7 -197 15 -252 21 -30 4 -66 8 -80 9 -79 9 -141 17 -190 26
-30 5 -71 11 -90 14 -19 2 -46 7 -60 9 -14 3 -41 7 -60 10 -31 5 -69 12 -160
30 -47 10 -125 27 -190 43 -36 8 -72 17 -80 18 -8 2 -15 4 -15 5 0 1 -9 3 -20
5 -11 2 -38 9 -60 15 -22 6 -47 12 -55 14 -8 2 -42 12 -75 22 -33 10 -64 19
-70 20 -19 3 -150 44 -170 53 -36 15 -91 31 -108 31 -9 0 -17 5 -17 10 0 6 -7
10 -15 10 -13 0 -129 40 -200 70 -11 4 -67 27 -125 50 -123 50 -165 68 -280
123 -47 22 -87 41 -90 42 -11 2 -209 105 -300 155 -157 86 -230 130 -333 197
-53 34 -99 63 -102 63 -4 0 -96 61 -105 70 -3 3 -34 25 -70 50 -36 24 -66 48
-68 52 -2 4 -8 8 -13 8 -14 0 -313 231 -399 308 -14 12 -27 22 -30 22 -3 0
-26 -51 -51 -113z"/>
<path d="M4238 3565 c-2 -2 -44 -7 -93 -10 -50 -3 -106 -8 -125 -10 -19 -2
-66 -6 -105 -10 -38 -3 -81 -8 -95 -11 -14 -3 -38 -7 -55 -8 -36 -4 -101 -14
-175 -26 -30 -5 -71 -12 -90 -15 -19 -3 -60 -10 -90 -16 -30 -7 -62 -13 -70
-14 -8 -2 -17 -4 -20 -5 -3 -1 -8 -2 -11 -2 -3 1 -39 -8 -80 -19 -41 -11 -86
-22 -100 -24 -90 -13 -486 -136 -674 -208 -44 -17 -82 -32 -85 -32 -9 -3 -44
-17 -135 -56 -50 -22 -96 -39 -103 -39 -6 0 -12 -4 -12 -10 0 -5 -7 -10 -16
-10 -9 0 -28 -6 -42 -14 -15 -8 -85 -44 -157 -79 -202 -100 -456 -242 -463
-259 -2 -4 -8 -8 -14 -8 -6 0 -63 -35 -127 -77 -64 -43 -123 -82 -132 -88 -33
-21 -74 -50 -79 -55 -3 -4 -27 -22 -55 -40 -27 -19 -56 -40 -63 -47 -7 -7 -26
-20 -42 -30 -17 -9 -30 -21 -30 -25 0 -4 -4 -8 -9 -8 -5 0 -22 -11 -37 -24
-16 -14 -63 -52 -104 -86 -41 -34 -100 -85 -131 -112 l-57 -50 85 -125 c46
-68 90 -132 98 -141 7 -9 49 -62 92 -118 132 -171 129 -167 156 -149 13 8 33
25 44 37 12 13 28 28 35 33 20 16 132 109 138 116 3 3 23 18 45 34 22 17 42
32 45 35 22 25 267 200 279 200 5 0 11 3 13 8 5 11 95 72 107 72 6 0 11 5 11
10 0 6 7 10 15 10 8 0 15 4 15 8 0 5 15 16 33 25 17 9 46 25 62 35 136 80 187
109 296 165 112 57 223 110 349 165 129 56 450 175 450 166 0 -3 9 0 21 6 11
6 28 13 37 15 9 2 37 10 62 19 25 8 56 17 70 20 14 3 52 13 85 22 33 9 67 18
75 19 8 2 16 4 18 5 2 3 2 3 57 15 22 4 45 9 50 10 51 12 217 45 245 49 19 3
46 8 60 11 14 3 43 7 65 10 22 3 54 8 70 10 17 3 53 7 80 10 28 2 70 7 95 10
286 33 775 38 1020 10 19 -2 67 -7 106 -10 39 -3 80 -7 91 -9 11 -3 44 -7 74
-11 52 -6 197 -29 249 -40 14 -3 39 -8 55 -11 17 -3 48 -9 70 -15 22 -5 56
-12 75 -15 19 -2 43 -7 52 -10 9 -3 25 -6 35 -8 37 -8 280 -76 334 -95 30 -10
56 -19 59 -19 6 -1 16 -4 100 -33 36 -12 77 -28 93 -36 15 -7 27 -11 27 -9 0
4 56 -17 150 -57 14 -6 27 -11 30 -12 3 -1 21 -8 40 -17 19 -8 60 -26 90 -39
30 -12 58 -28 62 -33 4 -6 8 -8 8 -3 0 9 342 -165 360 -183 3 -3 30 -18 60
-34 104 -56 429 -270 520 -342 8 -7 62 -50 120 -95 58 -46 110 -88 117 -93 6
-6 34 -31 63 -56 28 -25 63 -55 77 -68 14 -13 29 -22 33 -20 31 11 400 514
400 545 0 5 -23 30 -52 54 -28 24 -59 51 -68 59 -8 8 -51 43 -95 78 -44 35
-89 71 -100 80 -40 33 -101 78 -150 112 -27 18 -52 37 -55 40 -3 3 -27 22 -55
40 -27 19 -51 37 -53 42 -2 4 -8 8 -13 8 -6 0 -61 33 -122 73 -127 82 -125 80
-231 141 -43 26 -82 46 -86 46 -5 0 -10 4 -12 8 -1 4 -28 20 -58 36 -30 15
-89 45 -130 67 -41 21 -84 42 -95 45 -11 4 -33 16 -50 28 -16 11 -30 19 -30
18 0 -2 -13 2 -30 9 -16 7 -33 12 -37 11 -5 -1 -8 2 -8 8 0 5 -7 10 -15 10 -8
0 -30 9 -50 20 -19 11 -37 20 -40 19 -3 0 -24 9 -48 19 -23 10 -82 34 -132 52
-49 18 -94 37 -99 42 -6 4 -18 8 -28 8 -10 0 -26 4 -36 10 -30 17 -350 117
-492 155 -3 1 -32 7 -65 15 -75 17 -67 15 -145 35 -36 8 -78 18 -94 20 -15 2
-38 7 -49 11 -12 4 -33 8 -47 9 -14 1 -39 5 -57 9 -17 4 -47 9 -65 12 -18 3
-46 7 -63 10 -16 2 -48 7 -70 9 -22 3 -51 8 -65 11 -14 3 -47 7 -75 10 -59 6
-110 12 -110 14 0 0 -31 3 -70 5 -38 3 -95 8 -125 11 -61 6 -776 14 -782 9z"/>
<path d="M4357 2194 c-1 -1 -47 -5 -102 -8 -55 -3 -118 -8 -140 -11 -22 -3
-58 -7 -80 -9 -22 -3 -62 -8 -90 -11 -27 -4 -63 -8 -80 -10 -16 -2 -30 -4 -30
-5 0 -2 -27 -7 -72 -13 -21 -3 -45 -8 -53 -11 -8 -3 -31 -7 -51 -10 -19 -3
-75 -15 -125 -26 -49 -12 -96 -23 -104 -25 -40 -8 -147 -37 -160 -42 -8 -3
-19 -7 -25 -8 -45 -11 -261 -86 -351 -121 -61 -24 -116 -44 -123 -44 -6 0 -11
-4 -11 -10 0 -5 -8 -10 -17 -10 -15 0 -375 -174 -448 -217 -153 -90 -370 -229
-430 -275 -5 -5 -41 -32 -80 -61 -38 -28 -72 -54 -75 -57 -3 -3 -25 -21 -50
-40 -25 -19 -51 -40 -58 -47 -7 -7 -34 -29 -60 -50 -26 -21 -54 -47 -64 -58
-16 -19 -16 -21 15 -49 18 -15 50 -42 71 -60 21 -17 53 -42 70 -57 69 -56 196
-149 205 -149 5 0 11 -4 13 -8 2 -5 37 -31 78 -59 74 -51 75 -51 102 -35 16 9
28 19 28 22 0 4 25 24 55 46 30 21 55 42 55 47 0 4 7 7 15 7 7 0 18 6 22 13 7
11 92 71 198 141 22 14 45 29 50 34 6 4 17 11 25 15 8 4 29 16 45 27 17 11 37
23 45 27 8 4 38 20 65 36 104 61 352 182 368 179 4 -1 7 2 7 6 0 5 6 9 13 9
10 1 110 40 204 80 17 7 37 13 45 13 8 0 18 3 22 7 3 4 12 8 19 10 7 1 72 20
145 42 73 22 145 42 160 45 15 2 28 5 30 6 2 3 5 4 52 13 19 4 46 10 60 13 32
7 116 24 155 30 17 2 41 7 55 10 14 3 48 8 75 10 28 3 61 7 75 9 28 6 139 15
250 20 41 2 75 4 75 5 0 1 19 2 43 3 23 1 42 -2 42 -6 0 -4 8 -4 18 1 9 4 26
7 37 6 25 -3 66 -5 85 -3 49 3 286 -14 370 -27 19 -3 53 -7 76 -8 22 -2 49 -6
60 -9 10 -3 42 -8 69 -12 28 -3 57 -8 65 -10 8 -2 31 -7 50 -10 47 -8 321 -74
340 -82 8 -4 20 -8 25 -8 6 -1 17 -5 25 -8 14 -5 119 -40 130 -42 9 -3 42 -16
185 -72 157 -62 391 -176 507 -246 42 -26 79 -47 83 -47 3 0 11 -5 18 -10 7
-6 50 -35 97 -67 120 -79 145 -97 148 -105 2 -5 8 -8 13 -8 5 0 17 -7 26 -15
10 -8 58 -46 106 -84 l89 -70 41 27 c23 15 44 30 45 35 2 4 8 7 14 7 9 0 313
224 333 245 6 6 33 30 62 54 53 43 59 64 22 76 -11 4 -17 11 -14 16 4 5 1 9
-5 9 -9 0 -39 24 -94 75 -6 6 -29 24 -51 40 -22 17 -44 35 -50 41 -5 6 -28 24
-50 40 -22 16 -44 33 -50 37 -17 13 -200 141 -221 154 -267 166 -494 290 -664
362 -41 18 -88 39 -105 46 -16 8 -61 26 -100 40 -38 14 -79 30 -90 35 -33 14
-159 53 -172 53 -7 0 -13 3 -13 7 0 4 -26 13 -57 20 -32 7 -64 17 -70 22 -7 6
-13 8 -13 5 0 -3 -15 -1 -32 4 -18 6 -40 12 -49 14 -8 2 -39 10 -67 19 -29 8
-52 13 -52 11 0 -3 -11 0 -26 5 -14 6 -43 12 -66 15 -22 3 -44 7 -48 10 -4 3
-23 7 -41 10 -32 4 -61 9 -119 20 -14 3 -43 7 -65 10 -22 3 -53 7 -70 10 -37
6 -93 12 -165 19 -30 3 -86 8 -125 12 -64 6 -562 13 -568 8z"/>
</g>
</svg>
