<?xml version="1.0" encoding="utf-8"?>
<!-- Generator: Adobe Illustrator 26.0.3, SVG Export Plug-In . SVG Version: 6.00 Build 0)  -->
<svg version="1.1" xmlns="http://www.w3.org/2000/svg" xmlns:xlink="http://www.w3.org/1999/xlink" x="0px" y="0px"
	 viewBox="0 0 1920 1080" style="enable-background:new 0 0 1920 1080;" xml:space="preserve">
<style type="text/css">
	.st0{display:none;}
	.st1{display:inline;}
	.st2{fill:none;stroke:#CCCCCC;stroke-width:0.25;stroke-miterlimit:10;}
	.st3{fill:#2B2B2B;}
	.st4{fill:#FFFFFF;}
</style>
<g id="Capa_2" class="st0">
	<g class="st1">
		<g>
			<rect x="-120" class="st2" width="1080" height="1080"/>
			<line class="st2" x1="-120" y1="1069.31" x2="960" y2="1069.31"/>
			<line class="st2" x1="-120" y1="1058.61" x2="960" y2="1058.61"/>
			<line class="st2" x1="-120" y1="1047.92" x2="960" y2="1047.92"/>
			<line class="st2" x1="-120" y1="1037.23" x2="960" y2="1037.23"/>
			<line class="st2" x1="-120" y1="1026.53" x2="960" y2="1026.53"/>
			<line class="st2" x1="-120" y1="1015.84" x2="960" y2="1015.84"/>
			<line class="st2" x1="-120" y1="1005.15" x2="960" y2="1005.15"/>
			<line class="st2" x1="-120" y1="994.46" x2="960" y2="994.46"/>
			<line class="st2" x1="-120" y1="983.76" x2="960" y2="983.76"/>
			<line class="st2" x1="-120" y1="973.07" x2="960" y2="973.07"/>
			<line class="st2" x1="-120" y1="962.38" x2="960" y2="962.38"/>
			<line class="st2" x1="-120" y1="951.68" x2="960" y2="951.68"/>
			<line class="st2" x1="-120" y1="940.99" x2="960" y2="940.99"/>
			<line class="st2" x1="-120" y1="930.3" x2="960" y2="930.3"/>
			<line class="st2" x1="-120" y1="919.6" x2="960" y2="919.6"/>
			<line class="st2" x1="-120" y1="908.91" x2="960" y2="908.91"/>
			<line class="st2" x1="-120" y1="898.22" x2="960" y2="898.22"/>
			<line class="st2" x1="-120" y1="887.52" x2="960" y2="887.52"/>
			<line class="st2" x1="-120" y1="876.83" x2="960" y2="876.83"/>
			<line class="st2" x1="-120" y1="866.14" x2="960" y2="866.14"/>
			<line class="st2" x1="-120" y1="855.45" x2="960" y2="855.45"/>
			<line class="st2" x1="-120" y1="844.75" x2="960" y2="844.75"/>
			<line class="st2" x1="-120" y1="834.06" x2="960" y2="834.06"/>
			<line class="st2" x1="-120" y1="823.37" x2="960" y2="823.37"/>
			<line class="st2" x1="-120" y1="812.67" x2="960" y2="812.67"/>
			<line class="st2" x1="-120" y1="801.98" x2="960" y2="801.98"/>
			<line class="st2" x1="-120" y1="791.29" x2="960" y2="791.29"/>
			<line class="st2" x1="-120" y1="780.59" x2="960" y2="780.59"/>
			<line class="st2" x1="-120" y1="769.9" x2="960" y2="769.9"/>
			<line class="st2" x1="-120" y1="759.21" x2="960" y2="759.21"/>
			<line class="st2" x1="-120" y1="748.51" x2="960" y2="748.51"/>
			<line class="st2" x1="-120" y1="737.82" x2="960" y2="737.82"/>
			<line class="st2" x1="-120" y1="727.13" x2="960" y2="727.13"/>
			<line class="st2" x1="-120" y1="716.44" x2="960" y2="716.44"/>
			<line class="st2" x1="-120" y1="705.74" x2="960" y2="705.74"/>
			<line class="st2" x1="-120" y1="695.05" x2="960" y2="695.05"/>
			<line class="st2" x1="-120" y1="684.36" x2="960" y2="684.36"/>
			<line class="st2" x1="-120" y1="673.66" x2="960" y2="673.66"/>
			<line class="st2" x1="-120" y1="662.97" x2="960" y2="662.97"/>
			<line class="st2" x1="-120" y1="652.28" x2="960" y2="652.28"/>
			<line class="st2" x1="-120" y1="641.58" x2="960" y2="641.58"/>
			<line class="st2" x1="-120" y1="630.89" x2="960" y2="630.89"/>
			<line class="st2" x1="-120" y1="620.2" x2="960" y2="620.2"/>
			<line class="st2" x1="-120" y1="609.5" x2="960" y2="609.5"/>
			<line class="st2" x1="-120" y1="598.81" x2="960" y2="598.81"/>
			<line class="st2" x1="-120" y1="588.12" x2="960" y2="588.12"/>
			<line class="st2" x1="-120" y1="577.43" x2="960" y2="577.43"/>
			<line class="st2" x1="-120" y1="566.73" x2="960" y2="566.73"/>
			<line class="st2" x1="-120" y1="556.04" x2="960" y2="556.04"/>
			<line class="st2" x1="-120" y1="545.35" x2="960" y2="545.35"/>
			<line class="st2" x1="-120" y1="534.65" x2="960" y2="534.65"/>
			<line class="st2" x1="-120" y1="523.96" x2="960" y2="523.96"/>
			<line class="st2" x1="-120" y1="513.27" x2="960" y2="513.27"/>
			<line class="st2" x1="-120" y1="502.57" x2="960" y2="502.57"/>
			<line class="st2" x1="-120" y1="491.88" x2="960" y2="491.88"/>
			<line class="st2" x1="-120" y1="481.19" x2="960" y2="481.19"/>
			<line class="st2" x1="-120" y1="470.5" x2="960" y2="470.5"/>
			<line class="st2" x1="-120" y1="459.8" x2="960" y2="459.8"/>
			<line class="st2" x1="-120" y1="449.11" x2="960" y2="449.11"/>
			<line class="st2" x1="-120" y1="438.42" x2="960" y2="438.42"/>
			<line class="st2" x1="-120" y1="427.72" x2="960" y2="427.72"/>
			<line class="st2" x1="-120" y1="417.03" x2="960" y2="417.03"/>
			<line class="st2" x1="-120" y1="406.34" x2="960" y2="406.34"/>
			<line class="st2" x1="-120" y1="395.64" x2="960" y2="395.64"/>
			<line class="st2" x1="-120" y1="384.95" x2="960" y2="384.95"/>
			<line class="st2" x1="-120" y1="374.26" x2="960" y2="374.26"/>
			<line class="st2" x1="-120" y1="363.56" x2="960" y2="363.56"/>
			<line class="st2" x1="-120" y1="352.87" x2="960" y2="352.87"/>
			<line class="st2" x1="-120" y1="342.18" x2="960" y2="342.18"/>
			<line class="st2" x1="-120" y1="331.49" x2="960" y2="331.49"/>
			<line class="st2" x1="-120" y1="320.79" x2="960" y2="320.79"/>
			<line class="st2" x1="-120" y1="310.1" x2="960" y2="310.1"/>
			<line class="st2" x1="-120" y1="299.41" x2="960" y2="299.41"/>
			<line class="st2" x1="-120" y1="288.71" x2="960" y2="288.71"/>
			<line class="st2" x1="-120" y1="278.02" x2="960" y2="278.02"/>
			<line class="st2" x1="-120" y1="267.33" x2="960" y2="267.33"/>
			<line class="st2" x1="-120" y1="256.63" x2="960" y2="256.63"/>
			<line class="st2" x1="-120" y1="245.94" x2="960" y2="245.94"/>
			<line class="st2" x1="-120" y1="235.25" x2="960" y2="235.25"/>
			<line class="st2" x1="-120" y1="224.55" x2="960" y2="224.55"/>
			<line class="st2" x1="-120" y1="213.86" x2="960" y2="213.86"/>
			<line class="st2" x1="-120" y1="203.17" x2="960" y2="203.17"/>
			<line class="st2" x1="-120" y1="192.48" x2="960" y2="192.48"/>
			<line class="st2" x1="-120" y1="181.78" x2="960" y2="181.78"/>
			<line class="st2" x1="-120" y1="171.09" x2="960" y2="171.09"/>
			<line class="st2" x1="-120" y1="160.4" x2="960" y2="160.4"/>
			<line class="st2" x1="-120" y1="149.7" x2="960" y2="149.7"/>
			<line class="st2" x1="-120" y1="139.01" x2="960" y2="139.01"/>
			<line class="st2" x1="-120" y1="128.32" x2="960" y2="128.32"/>
			<line class="st2" x1="-120" y1="117.62" x2="960" y2="117.62"/>
			<line class="st2" x1="-120" y1="106.93" x2="960" y2="106.93"/>
			<line class="st2" x1="-120" y1="96.24" x2="960" y2="96.24"/>
			<line class="st2" x1="-120" y1="85.54" x2="960" y2="85.54"/>
			<line class="st2" x1="-120" y1="74.85" x2="960" y2="74.85"/>
			<line class="st2" x1="-120" y1="64.16" x2="960" y2="64.16"/>
			<line class="st2" x1="-120" y1="53.47" x2="960" y2="53.47"/>
			<line class="st2" x1="-120" y1="42.77" x2="960" y2="42.77"/>
			<line class="st2" x1="-120" y1="32.08" x2="960" y2="32.08"/>
			<line class="st2" x1="-120" y1="21.39" x2="960" y2="21.39"/>
			<line class="st2" x1="-120" y1="10.69" x2="960" y2="10.69"/>
			<line class="st2" x1="949.31" y1="0" x2="949.31" y2="1080"/>
			<line class="st2" x1="938.61" y1="0" x2="938.61" y2="1080"/>
			<line class="st2" x1="927.92" y1="0" x2="927.92" y2="1080"/>
			<line class="st2" x1="917.23" y1="0" x2="917.23" y2="1080"/>
			<line class="st2" x1="906.53" y1="0" x2="906.53" y2="1080"/>
			<line class="st2" x1="895.84" y1="0" x2="895.84" y2="1080"/>
			<line class="st2" x1="885.15" y1="0" x2="885.15" y2="1080"/>
			<line class="st2" x1="874.46" y1="0" x2="874.46" y2="1080"/>
			<line class="st2" x1="863.76" y1="0" x2="863.76" y2="1080"/>
			<line class="st2" x1="853.07" y1="0" x2="853.07" y2="1080"/>
			<line class="st2" x1="842.38" y1="0" x2="842.38" y2="1080"/>
			<line class="st2" x1="831.68" y1="0" x2="831.68" y2="1080"/>
			<line class="st2" x1="820.99" y1="0" x2="820.99" y2="1080"/>
			<line class="st2" x1="810.3" y1="0" x2="810.3" y2="1080"/>
			<line class="st2" x1="799.6" y1="0" x2="799.6" y2="1080"/>
			<line class="st2" x1="788.91" y1="0" x2="788.91" y2="1080"/>
			<line class="st2" x1="778.22" y1="0" x2="778.22" y2="1080"/>
			<line class="st2" x1="767.52" y1="0" x2="767.52" y2="1080"/>
			<line class="st2" x1="756.83" y1="0" x2="756.83" y2="1080"/>
			<line class="st2" x1="746.14" y1="0" x2="746.14" y2="1080"/>
			<line class="st2" x1="735.45" y1="0" x2="735.45" y2="1080"/>
			<line class="st2" x1="724.75" y1="0" x2="724.75" y2="1080"/>
			<line class="st2" x1="714.06" y1="0" x2="714.06" y2="1080"/>
			<line class="st2" x1="703.37" y1="0" x2="703.37" y2="1080"/>
			<line class="st2" x1="692.67" y1="0" x2="692.67" y2="1080"/>
			<line class="st2" x1="681.98" y1="0" x2="681.98" y2="1080"/>
			<line class="st2" x1="671.29" y1="0" x2="671.29" y2="1080"/>
			<line class="st2" x1="660.59" y1="0" x2="660.59" y2="1080"/>
			<line class="st2" x1="649.9" y1="0" x2="649.9" y2="1080"/>
			<line class="st2" x1="639.21" y1="0" x2="639.21" y2="1080"/>
			<line class="st2" x1="628.51" y1="0" x2="628.51" y2="1080"/>
			<line class="st2" x1="617.82" y1="0" x2="617.82" y2="1080"/>
			<line class="st2" x1="607.13" y1="0" x2="607.13" y2="1080"/>
			<line class="st2" x1="596.44" y1="0" x2="596.44" y2="1080"/>
			<line class="st2" x1="585.74" y1="0" x2="585.74" y2="1080"/>
			<line class="st2" x1="575.05" y1="0" x2="575.05" y2="1080"/>
			<line class="st2" x1="564.36" y1="0" x2="564.36" y2="1080"/>
			<line class="st2" x1="553.66" y1="0" x2="553.66" y2="1080"/>
			<line class="st2" x1="542.97" y1="0" x2="542.97" y2="1080"/>
			<line class="st2" x1="532.28" y1="0" x2="532.28" y2="1080"/>
			<line class="st2" x1="521.58" y1="0" x2="521.58" y2="1080"/>
			<line class="st2" x1="510.89" y1="0" x2="510.89" y2="1080"/>
			<line class="st2" x1="500.2" y1="0" x2="500.2" y2="1080"/>
			<line class="st2" x1="489.5" y1="0" x2="489.5" y2="1080"/>
			<line class="st2" x1="478.81" y1="0" x2="478.81" y2="1080"/>
			<line class="st2" x1="468.12" y1="0" x2="468.12" y2="1080"/>
			<line class="st2" x1="457.43" y1="0" x2="457.43" y2="1080"/>
			<line class="st2" x1="446.73" y1="0" x2="446.73" y2="1080"/>
			<line class="st2" x1="436.04" y1="0" x2="436.04" y2="1080"/>
			<line class="st2" x1="425.35" y1="0" x2="425.35" y2="1080"/>
			<line class="st2" x1="414.65" y1="0" x2="414.65" y2="1080"/>
			<line class="st2" x1="403.96" y1="0" x2="403.96" y2="1080"/>
			<line class="st2" x1="393.27" y1="0" x2="393.27" y2="1080"/>
			<line class="st2" x1="382.57" y1="0" x2="382.57" y2="1080"/>
			<line class="st2" x1="371.88" y1="0" x2="371.88" y2="1080"/>
			<line class="st2" x1="361.19" y1="0" x2="361.19" y2="1080"/>
			<line class="st2" x1="350.5" y1="0" x2="350.5" y2="1080"/>
			<line class="st2" x1="339.8" y1="0" x2="339.8" y2="1080"/>
			<line class="st2" x1="329.11" y1="0" x2="329.11" y2="1080"/>
			<line class="st2" x1="318.42" y1="0" x2="318.42" y2="1080"/>
			<line class="st2" x1="307.72" y1="0" x2="307.72" y2="1080"/>
			<line class="st2" x1="297.03" y1="0" x2="297.03" y2="1080"/>
			<line class="st2" x1="286.34" y1="0" x2="286.34" y2="1080"/>
			<line class="st2" x1="275.64" y1="0" x2="275.64" y2="1080"/>
			<line class="st2" x1="264.95" y1="0" x2="264.95" y2="1080"/>
			<line class="st2" x1="254.26" y1="0" x2="254.26" y2="1080"/>
			<line class="st2" x1="243.56" y1="0" x2="243.56" y2="1080"/>
			<line class="st2" x1="232.87" y1="0" x2="232.87" y2="1080"/>
			<line class="st2" x1="222.18" y1="0" x2="222.18" y2="1080"/>
			<line class="st2" x1="211.49" y1="0" x2="211.49" y2="1080"/>
			<line class="st2" x1="200.79" y1="0" x2="200.79" y2="1080"/>
			<line class="st2" x1="190.1" y1="0" x2="190.1" y2="1080"/>
			<line class="st2" x1="179.41" y1="0" x2="179.41" y2="1080"/>
			<line class="st2" x1="168.71" y1="0" x2="168.71" y2="1080"/>
			<line class="st2" x1="158.02" y1="0" x2="158.02" y2="1080"/>
			<line class="st2" x1="147.33" y1="0" x2="147.33" y2="1080"/>
			<line class="st2" x1="136.63" y1="0" x2="136.63" y2="1080"/>
			<line class="st2" x1="125.94" y1="0" x2="125.94" y2="1080"/>
			<line class="st2" x1="115.25" y1="0" x2="115.25" y2="1080"/>
			<line class="st2" x1="104.55" y1="0" x2="104.55" y2="1080"/>
			<line class="st2" x1="93.86" y1="0" x2="93.86" y2="1080"/>
			<line class="st2" x1="83.17" y1="0" x2="83.17" y2="1080"/>
			<line class="st2" x1="72.48" y1="0" x2="72.48" y2="1080"/>
			<line class="st2" x1="61.78" y1="0" x2="61.78" y2="1080"/>
			<line class="st2" x1="51.09" y1="0" x2="51.09" y2="1080"/>
			<line class="st2" x1="40.4" y1="0" x2="40.4" y2="1080"/>
			<line class="st2" x1="29.7" y1="0" x2="29.7" y2="1080"/>
			<line class="st2" x1="19.01" y1="0" x2="19.01" y2="1080"/>
			<line class="st2" x1="8.32" y1="0" x2="8.32" y2="1080"/>
			<line class="st2" x1="-2.38" y1="0" x2="-2.38" y2="1080"/>
			<line class="st2" x1="-13.07" y1="0" x2="-13.07" y2="1080"/>
			<line class="st2" x1="-23.76" y1="0" x2="-23.76" y2="1080"/>
			<line class="st2" x1="-34.46" y1="0" x2="-34.46" y2="1080"/>
			<line class="st2" x1="-45.15" y1="0" x2="-45.15" y2="1080"/>
			<line class="st2" x1="-55.84" y1="0" x2="-55.84" y2="1080"/>
			<line class="st2" x1="-66.53" y1="0" x2="-66.53" y2="1080"/>
			<line class="st2" x1="-77.23" y1="0" x2="-77.23" y2="1080"/>
			<line class="st2" x1="-87.92" y1="0" x2="-87.92" y2="1080"/>
			<line class="st2" x1="-98.61" y1="0" x2="-98.61" y2="1080"/>
			<line class="st2" x1="-109.31" y1="0" x2="-109.31" y2="1080"/>
		</g>
		<g>
			<rect x="960" class="st2" width="1080" height="1080"/>
			<line class="st2" x1="960" y1="1069.31" x2="2040" y2="1069.31"/>
			<line class="st2" x1="960" y1="1058.61" x2="2040" y2="1058.61"/>
			<line class="st2" x1="960" y1="1047.92" x2="2040" y2="1047.92"/>
			<line class="st2" x1="960" y1="1037.23" x2="2040" y2="1037.23"/>
			<line class="st2" x1="960" y1="1026.53" x2="2040" y2="1026.53"/>
			<line class="st2" x1="960" y1="1015.84" x2="2040" y2="1015.84"/>
			<line class="st2" x1="960" y1="1005.15" x2="2040" y2="1005.15"/>
			<line class="st2" x1="960" y1="994.46" x2="2040" y2="994.46"/>
			<line class="st2" x1="960" y1="983.76" x2="2040" y2="983.76"/>
			<line class="st2" x1="960" y1="973.07" x2="2040" y2="973.07"/>
			<line class="st2" x1="960" y1="962.38" x2="2040" y2="962.38"/>
			<line class="st2" x1="960" y1="951.68" x2="2040" y2="951.68"/>
			<line class="st2" x1="960" y1="940.99" x2="2040" y2="940.99"/>
			<line class="st2" x1="960" y1="930.3" x2="2040" y2="930.3"/>
			<line class="st2" x1="960" y1="919.6" x2="2040" y2="919.6"/>
			<line class="st2" x1="960" y1="908.91" x2="2040" y2="908.91"/>
			<line class="st2" x1="960" y1="898.22" x2="2040" y2="898.22"/>
			<line class="st2" x1="960" y1="887.52" x2="2040" y2="887.52"/>
			<line class="st2" x1="960" y1="876.83" x2="2040" y2="876.83"/>
			<line class="st2" x1="960" y1="866.14" x2="2040" y2="866.14"/>
			<line class="st2" x1="960" y1="855.45" x2="2040" y2="855.45"/>
			<line class="st2" x1="960" y1="844.75" x2="2040" y2="844.75"/>
			<line class="st2" x1="960" y1="834.06" x2="2040" y2="834.06"/>
			<line class="st2" x1="960" y1="823.37" x2="2040" y2="823.37"/>
			<line class="st2" x1="960" y1="812.67" x2="2040" y2="812.67"/>
			<line class="st2" x1="960" y1="801.98" x2="2040" y2="801.98"/>
			<line class="st2" x1="960" y1="791.29" x2="2040" y2="791.29"/>
			<line class="st2" x1="960" y1="780.59" x2="2040" y2="780.59"/>
			<line class="st2" x1="960" y1="769.9" x2="2040" y2="769.9"/>
			<line class="st2" x1="960" y1="759.21" x2="2040" y2="759.21"/>
			<line class="st2" x1="960" y1="748.51" x2="2040" y2="748.51"/>
			<line class="st2" x1="960" y1="737.82" x2="2040" y2="737.82"/>
			<line class="st2" x1="960" y1="727.13" x2="2040" y2="727.13"/>
			<line class="st2" x1="960" y1="716.44" x2="2040" y2="716.44"/>
			<line class="st2" x1="960" y1="705.74" x2="2040" y2="705.74"/>
			<line class="st2" x1="960" y1="695.05" x2="2040" y2="695.05"/>
			<line class="st2" x1="960" y1="684.36" x2="2040" y2="684.36"/>
			<line class="st2" x1="960" y1="673.66" x2="2040" y2="673.66"/>
			<line class="st2" x1="960" y1="662.97" x2="2040" y2="662.97"/>
			<line class="st2" x1="960" y1="652.28" x2="2040" y2="652.28"/>
			<line class="st2" x1="960" y1="641.58" x2="2040" y2="641.58"/>
			<line class="st2" x1="960" y1="630.89" x2="2040" y2="630.89"/>
			<line class="st2" x1="960" y1="620.2" x2="2040" y2="620.2"/>
			<line class="st2" x1="960" y1="609.5" x2="2040" y2="609.5"/>
			<line class="st2" x1="960" y1="598.81" x2="2040" y2="598.81"/>
			<line class="st2" x1="960" y1="588.12" x2="2040" y2="588.12"/>
			<line class="st2" x1="960" y1="577.43" x2="2040" y2="577.43"/>
			<line class="st2" x1="960" y1="566.73" x2="2040" y2="566.73"/>
			<line class="st2" x1="960" y1="556.04" x2="2040" y2="556.04"/>
			<line class="st2" x1="960" y1="545.35" x2="2040" y2="545.35"/>
			<line class="st2" x1="960" y1="534.65" x2="2040" y2="534.65"/>
			<line class="st2" x1="960" y1="523.96" x2="2040" y2="523.96"/>
			<line class="st2" x1="960" y1="513.27" x2="2040" y2="513.27"/>
			<line class="st2" x1="960" y1="502.57" x2="2040" y2="502.57"/>
			<line class="st2" x1="960" y1="491.88" x2="2040" y2="491.88"/>
			<line class="st2" x1="960" y1="481.19" x2="2040" y2="481.19"/>
			<line class="st2" x1="960" y1="470.5" x2="2040" y2="470.5"/>
			<line class="st2" x1="960" y1="459.8" x2="2040" y2="459.8"/>
			<line class="st2" x1="960" y1="449.11" x2="2040" y2="449.11"/>
			<line class="st2" x1="960" y1="438.42" x2="2040" y2="438.42"/>
			<line class="st2" x1="960" y1="427.72" x2="2040" y2="427.72"/>
			<line class="st2" x1="960" y1="417.03" x2="2040" y2="417.03"/>
			<line class="st2" x1="960" y1="406.34" x2="2040" y2="406.34"/>
			<line class="st2" x1="960" y1="395.64" x2="2040" y2="395.64"/>
			<line class="st2" x1="960" y1="384.95" x2="2040" y2="384.95"/>
			<line class="st2" x1="960" y1="374.26" x2="2040" y2="374.26"/>
			<line class="st2" x1="960" y1="363.56" x2="2040" y2="363.56"/>
			<line class="st2" x1="960" y1="352.87" x2="2040" y2="352.87"/>
			<line class="st2" x1="960" y1="342.18" x2="2040" y2="342.18"/>
			<line class="st2" x1="960" y1="331.49" x2="2040" y2="331.49"/>
			<line class="st2" x1="960" y1="320.79" x2="2040" y2="320.79"/>
			<line class="st2" x1="960" y1="310.1" x2="2040" y2="310.1"/>
			<line class="st2" x1="960" y1="299.41" x2="2040" y2="299.41"/>
			<line class="st2" x1="960" y1="288.71" x2="2040" y2="288.71"/>
			<line class="st2" x1="960" y1="278.02" x2="2040" y2="278.02"/>
			<line class="st2" x1="960" y1="267.33" x2="2040" y2="267.33"/>
			<line class="st2" x1="960" y1="256.63" x2="2040" y2="256.63"/>
			<line class="st2" x1="960" y1="245.94" x2="2040" y2="245.94"/>
			<line class="st2" x1="960" y1="235.25" x2="2040" y2="235.25"/>
			<line class="st2" x1="960" y1="224.55" x2="2040" y2="224.55"/>
			<line class="st2" x1="960" y1="213.86" x2="2040" y2="213.86"/>
			<line class="st2" x1="960" y1="203.17" x2="2040" y2="203.17"/>
			<line class="st2" x1="960" y1="192.48" x2="2040" y2="192.48"/>
			<line class="st2" x1="960" y1="181.78" x2="2040" y2="181.78"/>
			<line class="st2" x1="960" y1="171.09" x2="2040" y2="171.09"/>
			<line class="st2" x1="960" y1="160.4" x2="2040" y2="160.4"/>
			<line class="st2" x1="960" y1="149.7" x2="2040" y2="149.7"/>
			<line class="st2" x1="960" y1="139.01" x2="2040" y2="139.01"/>
			<line class="st2" x1="960" y1="128.32" x2="2040" y2="128.32"/>
			<line class="st2" x1="960" y1="117.62" x2="2040" y2="117.62"/>
			<line class="st2" x1="960" y1="106.93" x2="2040" y2="106.93"/>
			<line class="st2" x1="960" y1="96.24" x2="2040" y2="96.24"/>
			<line class="st2" x1="960" y1="85.54" x2="2040" y2="85.54"/>
			<line class="st2" x1="960" y1="74.85" x2="2040" y2="74.85"/>
			<line class="st2" x1="960" y1="64.16" x2="2040" y2="64.16"/>
			<line class="st2" x1="960" y1="53.47" x2="2040" y2="53.47"/>
			<line class="st2" x1="960" y1="42.77" x2="2040" y2="42.77"/>
			<line class="st2" x1="960" y1="32.08" x2="2040" y2="32.08"/>
			<line class="st2" x1="960" y1="21.39" x2="2040" y2="21.39"/>
			<line class="st2" x1="960" y1="10.69" x2="2040" y2="10.69"/>
			<line class="st2" x1="2029.31" y1="0" x2="2029.31" y2="1080"/>
			<line class="st2" x1="2018.61" y1="0" x2="2018.61" y2="1080"/>
			<line class="st2" x1="2007.92" y1="0" x2="2007.92" y2="1080"/>
			<line class="st2" x1="1997.23" y1="0" x2="1997.23" y2="1080"/>
			<line class="st2" x1="1986.53" y1="0" x2="1986.53" y2="1080"/>
			<line class="st2" x1="1975.84" y1="0" x2="1975.84" y2="1080"/>
			<line class="st2" x1="1965.15" y1="0" x2="1965.15" y2="1080"/>
			<line class="st2" x1="1954.46" y1="0" x2="1954.46" y2="1080"/>
			<line class="st2" x1="1943.76" y1="0" x2="1943.76" y2="1080"/>
			<line class="st2" x1="1933.07" y1="0" x2="1933.07" y2="1080"/>
			<line class="st2" x1="1922.38" y1="0" x2="1922.38" y2="1080"/>
			<line class="st2" x1="1911.68" y1="0" x2="1911.68" y2="1080"/>
			<line class="st2" x1="1900.99" y1="0" x2="1900.99" y2="1080"/>
			<line class="st2" x1="1890.3" y1="0" x2="1890.3" y2="1080"/>
			<line class="st2" x1="1879.6" y1="0" x2="1879.6" y2="1080"/>
			<line class="st2" x1="1868.91" y1="0" x2="1868.91" y2="1080"/>
			<line class="st2" x1="1858.22" y1="0" x2="1858.22" y2="1080"/>
			<line class="st2" x1="1847.52" y1="0" x2="1847.52" y2="1080"/>
			<line class="st2" x1="1836.83" y1="0" x2="1836.83" y2="1080"/>
			<line class="st2" x1="1826.14" y1="0" x2="1826.14" y2="1080"/>
			<line class="st2" x1="1815.45" y1="0" x2="1815.45" y2="1080"/>
			<line class="st2" x1="1804.75" y1="0" x2="1804.75" y2="1080"/>
			<line class="st2" x1="1794.06" y1="0" x2="1794.06" y2="1080"/>
			<line class="st2" x1="1783.37" y1="0" x2="1783.37" y2="1080"/>
			<line class="st2" x1="1772.67" y1="0" x2="1772.67" y2="1080"/>
			<line class="st2" x1="1761.98" y1="0" x2="1761.98" y2="1080"/>
			<line class="st2" x1="1751.29" y1="0" x2="1751.29" y2="1080"/>
			<line class="st2" x1="1740.59" y1="0" x2="1740.59" y2="1080"/>
			<line class="st2" x1="1729.9" y1="0" x2="1729.9" y2="1080"/>
			<line class="st2" x1="1719.21" y1="0" x2="1719.21" y2="1080"/>
			<line class="st2" x1="1708.51" y1="0" x2="1708.51" y2="1080"/>
			<line class="st2" x1="1697.82" y1="0" x2="1697.82" y2="1080"/>
			<line class="st2" x1="1687.13" y1="0" x2="1687.13" y2="1080"/>
			<line class="st2" x1="1676.44" y1="0" x2="1676.44" y2="1080"/>
			<line class="st2" x1="1665.74" y1="0" x2="1665.74" y2="1080"/>
			<line class="st2" x1="1655.05" y1="0" x2="1655.05" y2="1080"/>
			<line class="st2" x1="1644.36" y1="0" x2="1644.36" y2="1080"/>
			<line class="st2" x1="1633.66" y1="0" x2="1633.66" y2="1080"/>
			<line class="st2" x1="1622.97" y1="0" x2="1622.97" y2="1080"/>
			<line class="st2" x1="1612.28" y1="0" x2="1612.28" y2="1080"/>
			<line class="st2" x1="1601.58" y1="0" x2="1601.58" y2="1080"/>
			<line class="st2" x1="1590.89" y1="0" x2="1590.89" y2="1080"/>
			<line class="st2" x1="1580.2" y1="0" x2="1580.2" y2="1080"/>
			<line class="st2" x1="1569.51" y1="0" x2="1569.51" y2="1080"/>
			<line class="st2" x1="1558.81" y1="0" x2="1558.81" y2="1080"/>
			<line class="st2" x1="1548.12" y1="0" x2="1548.12" y2="1080"/>
			<line class="st2" x1="1537.43" y1="0" x2="1537.43" y2="1080"/>
			<line class="st2" x1="1526.73" y1="0" x2="1526.73" y2="1080"/>
			<line class="st2" x1="1516.04" y1="0" x2="1516.04" y2="1080"/>
			<line class="st2" x1="1505.35" y1="0" x2="1505.35" y2="1080"/>
			<line class="st2" x1="1494.65" y1="0" x2="1494.65" y2="1080"/>
			<line class="st2" x1="1483.96" y1="0" x2="1483.96" y2="1080"/>
			<line class="st2" x1="1473.27" y1="0" x2="1473.27" y2="1080"/>
			<line class="st2" x1="1462.57" y1="0" x2="1462.57" y2="1080"/>
			<line class="st2" x1="1451.88" y1="0" x2="1451.88" y2="1080"/>
			<line class="st2" x1="1441.19" y1="0" x2="1441.19" y2="1080"/>
			<line class="st2" x1="1430.49" y1="0" x2="1430.49" y2="1080"/>
			<line class="st2" x1="1419.8" y1="0" x2="1419.8" y2="1080"/>
			<line class="st2" x1="1409.11" y1="0" x2="1409.11" y2="1080"/>
			<line class="st2" x1="1398.42" y1="0" x2="1398.42" y2="1080"/>
			<line class="st2" x1="1387.72" y1="0" x2="1387.72" y2="1080"/>
			<line class="st2" x1="1377.03" y1="0" x2="1377.03" y2="1080"/>
			<line class="st2" x1="1366.34" y1="0" x2="1366.34" y2="1080"/>
			<line class="st2" x1="1355.64" y1="0" x2="1355.64" y2="1080"/>
			<line class="st2" x1="1344.95" y1="0" x2="1344.95" y2="1080"/>
			<line class="st2" x1="1334.26" y1="0" x2="1334.26" y2="1080"/>
			<line class="st2" x1="1323.56" y1="0" x2="1323.56" y2="1080"/>
			<line class="st2" x1="1312.87" y1="0" x2="1312.87" y2="1080"/>
			<line class="st2" x1="1302.18" y1="0" x2="1302.18" y2="1080"/>
			<line class="st2" x1="1291.49" y1="0" x2="1291.49" y2="1080"/>
			<line class="st2" x1="1280.79" y1="0" x2="1280.79" y2="1080"/>
			<line class="st2" x1="1270.1" y1="0" x2="1270.1" y2="1080"/>
			<line class="st2" x1="1259.41" y1="0" x2="1259.41" y2="1080"/>
			<line class="st2" x1="1248.71" y1="0" x2="1248.71" y2="1080"/>
			<line class="st2" x1="1238.02" y1="0" x2="1238.02" y2="1080"/>
			<line class="st2" x1="1227.33" y1="0" x2="1227.33" y2="1080"/>
			<line class="st2" x1="1216.63" y1="0" x2="1216.63" y2="1080"/>
			<line class="st2" x1="1205.94" y1="0" x2="1205.94" y2="1080"/>
			<line class="st2" x1="1195.25" y1="0" x2="1195.25" y2="1080"/>
			<line class="st2" x1="1184.55" y1="0" x2="1184.55" y2="1080"/>
			<line class="st2" x1="1173.86" y1="0" x2="1173.86" y2="1080"/>
			<line class="st2" x1="1163.17" y1="0" x2="1163.17" y2="1080"/>
			<line class="st2" x1="1152.48" y1="0" x2="1152.48" y2="1080"/>
			<line class="st2" x1="1141.78" y1="0" x2="1141.78" y2="1080"/>
			<line class="st2" x1="1131.09" y1="0" x2="1131.09" y2="1080"/>
			<line class="st2" x1="1120.4" y1="0" x2="1120.4" y2="1080"/>
			<line class="st2" x1="1109.7" y1="0" x2="1109.7" y2="1080"/>
			<line class="st2" x1="1099.01" y1="0" x2="1099.01" y2="1080"/>
			<line class="st2" x1="1088.32" y1="0" x2="1088.32" y2="1080"/>
			<line class="st2" x1="1077.62" y1="0" x2="1077.62" y2="1080"/>
			<line class="st2" x1="1066.93" y1="0" x2="1066.93" y2="1080"/>
			<line class="st2" x1="1056.24" y1="0" x2="1056.24" y2="1080"/>
			<line class="st2" x1="1045.54" y1="0" x2="1045.54" y2="1080"/>
			<line class="st2" x1="1034.85" y1="0" x2="1034.85" y2="1080"/>
			<line class="st2" x1="1024.16" y1="0" x2="1024.16" y2="1080"/>
			<line class="st2" x1="1013.47" y1="0" x2="1013.47" y2="1080"/>
			<line class="st2" x1="1002.77" y1="0" x2="1002.77" y2="1080"/>
			<line class="st2" x1="992.08" y1="0" x2="992.08" y2="1080"/>
			<line class="st2" x1="981.39" y1="0" x2="981.39" y2="1080"/>
			<line class="st2" x1="970.69" y1="0" x2="970.69" y2="1080"/>
		</g>
	</g>
</g>
<g id="Capa_1">
	<g>
		<path class="st3" d="M626.28,431.8c-59.75,0-108.2,48.44-108.2,108.2s48.44,108.2,108.2,108.2s108.2-48.44,108.2-108.2
			S686.03,431.8,626.28,431.8z"/>
		<path class="st4" d="M621.89,604.92h-8.6v-44.76c0-3.96-3.21-7.17-7.17-7.17h-44.76v-8.6h48.68c6.54,0,11.85,5.31,11.85,11.85
			V604.92z"/>
		<path class="st4" d="M691.19,552.98h-44.76c-3.96,0-7.17,3.21-7.17,7.17v44.76h-8.6v-48.68c0-11.39-9.23-20.61-20.61-20.61h-48.68
			v-8.6h44.76c3.96,0,7.17-3.21,7.17-7.17v-44.76h8.6v48.68c0,11.39,9.23,20.62,20.62,20.62h48.68V552.98z"/>
		<path class="st4" d="M691.19,535.62h-48.68c-6.55,0-11.85-5.31-11.85-11.85v-48.68h8.6v44.76c0,3.96,3.21,7.17,7.17,7.17h44.76
			V535.62z"/>
		<g>
			<path class="st3" d="M810.41,554.83v-78.14h24.78v77.78c0,15.56,6.69,28.22,27.13,28.22c20.8,0,27.31-12.66,27.31-28.22v-77.78
				h24.96v78.14c0,32.92-22.07,50.1-52.27,50.1C832.66,604.93,810.41,587.75,810.41,554.83z"/>
			<path class="st3" d="M925.16,561.52h25.14c1.09,14.29,11.03,21.34,26.59,21.34c18.09,0,25.68-5.97,25.68-15.56
				c0-8.5-5.43-13.02-17.36-15.55l-18.45-3.98c-21.89-4.7-37.44-13.93-37.44-36.9c0-21.34,18.45-35.81,47.75-35.81
				c28.4,0,48.66,16.46,48.84,40.15h-25.14c-0.72-9.77-7.78-17.91-24.06-17.91c-15.19,0-21.89,5.79-21.89,13.57
				c0,6.51,3.98,11.21,16.28,13.93l17.18,3.62c23.51,4.88,39.79,15.19,39.79,38.35c0,22.61-15.74,38.16-51.19,38.16
				C943.97,604.93,926.42,587.75,925.16,561.52z"/>
			<path class="st3" d="M1076.14,476.28h54.26c25.86,0,41.78,17.73,41.78,41.24c0,24.24-16.28,41.96-41.78,41.96h-29.48v45.04
				h-24.78V476.28z M1125.88,537.24c13.75,0,20.98-6.51,20.98-19.72c0-12.3-7.78-19.17-20.98-19.17h-24.96v38.89H1125.88z"/>
			<path class="st3" d="M1186.9,476.28h24.24v128.24h-24.24V476.28z"/>
			<path class="st3" d="M1309.24,508.84v57.52c0,20.26-13.2,38.16-41.6,38.16h-0.18c-28.58,0-41.6-17.91-41.6-38.16v-57.52h24.24
				v53.72c0,11.94,5.06,19.35,17.54,19.35c12.3,0,17.36-7.42,17.36-19.35v-53.72H1309.24z"/>
			<path class="st3" d="M1321.07,571.24h24.24c0,7.23,5.61,12.84,16.64,12.84c10.67,0,15.56-3.8,15.56-8.68
				c0-4.7-3.44-7.6-10.85-9.04l-15.19-2.89c-15.19-2.89-27.49-11.21-27.49-28.58c0-15.37,13.57-27.67,37.44-27.67
				c23.51,0,38.35,13.38,38.35,31.29h-23.88c0-6.51-4.88-11.94-14.83-11.94c-8.14,0-13.38,3.44-13.38,8.5c0,4.7,3.62,7.24,9.59,8.5
				l17.18,3.08c15.19,3.08,27.49,9.95,27.49,28.58c0,18.81-17.18,29.3-39.97,29.3C1334.63,604.52,1321.61,590.96,1321.07,571.24z"/>
		</g>
	</g>
</g>
</svg>
