<?xml version="1.0" encoding="UTF-8"?><svg id="Layer_1" xmlns="http://www.w3.org/2000/svg" viewBox="0 0 2160.25 1080.25"><defs><style>.cls-1{fill:#2b2b2b;}.cls-1,.cls-2{stroke-width:0px;}.cls-2{fill:#fff;}</style></defs><path class="cls-1" d="m746.41,431.92c-59.75,0-108.2,48.44-108.2,108.2s48.44,108.2,108.2,108.2,108.2-48.44,108.2-108.2-48.45-108.2-108.2-108.2Z"/><path class="cls-2" d="m742.02,605.04h-8.6v-44.76c0-3.96-3.21-7.17-7.17-7.17h-44.76v-8.6h48.68c6.54,0,11.85,5.31,11.85,11.85v48.68Z"/><path class="cls-2" d="m811.32,553.1h-44.76c-3.96,0-7.17,3.21-7.17,7.17v44.76h-8.6v-48.68c0-11.39-9.23-20.61-20.61-20.61h-48.68v-8.6h44.76c3.96,0,7.17-3.21,7.17-7.17v-44.76h8.6v48.68c0,11.39,9.23,20.62,20.62,20.62h48.68v8.59h-.01Z"/><path class="cls-2" d="m811.32,535.74h-48.68c-6.55,0-11.85-5.31-11.85-11.85v-48.68h8.6v44.76c0,3.96,3.21,7.17,7.17,7.17h44.76v8.6Z"/><path class="cls-1" d="m930.53,554.96v-78.14h24.78v77.78c0,15.56,6.69,28.22,27.13,28.22s27.31-12.66,27.31-28.22v-77.78h24.96v78.14c0,32.92-22.07,50.1-52.27,50.1-29.66,0-51.91-17.18-51.91-50.1Z"/><path class="cls-1" d="m1045.28,561.65h25.14c1.09,14.29,11.03,21.34,26.59,21.34,18.09,0,25.68-5.97,25.68-15.56,0-8.5-5.43-13.02-17.36-15.55l-18.45-3.98c-21.89-4.7-37.44-13.93-37.44-36.9,0-21.34,18.45-35.81,47.75-35.81s48.66,16.46,48.84,40.15h-25.14c-.72-9.77-7.78-17.91-24.06-17.91-15.19,0-21.89,5.79-21.89,13.57,0,6.51,3.98,11.21,16.28,13.93l17.18,3.62c23.51,4.88,39.79,15.19,39.79,38.35s-15.74,38.16-51.19,38.16c-32.91,0-50.46-17.18-51.72-43.41Z"/><path class="cls-1" d="m1161.27,476.4h54.26c25.86,0,41.78,17.73,41.78,41.24s-16.28,41.96-41.78,41.96h-29.48v45.04h-24.78v-128.24Zm49.74,60.96c13.75,0,20.98-6.51,20.98-19.72,0-12.3-7.78-19.17-20.98-19.17h-24.96v38.89h24.96Z"/><path class="cls-1" d="m1272.03,476.4h24.24v128.24h-24.24v-128.24Z"/><path class="cls-1" d="m1394.36,508.96v57.52c0,20.26-13.2,38.16-41.6,38.16h-.18c-28.58,0-41.6-17.91-41.6-38.16v-57.52h24.24v53.72c0,11.94,5.06,19.35,17.54,19.35s17.36-7.42,17.36-19.35v-53.72h24.24Z"/><path class="cls-1" d="m1406.19,571.36h24.24c0,7.23,5.61,12.84,16.64,12.84s15.56-3.8,15.56-8.68-3.44-7.6-10.85-9.04l-15.19-2.89c-15.19-2.89-27.49-11.21-27.49-28.58,0-15.37,13.57-27.67,37.44-27.67s38.35,13.38,38.35,31.29h-23.88c0-6.51-4.88-11.94-14.83-11.94-8.14,0-13.38,3.44-13.38,8.5,0,4.7,3.62,7.24,9.59,8.5l17.18,3.08c15.19,3.08,27.49,9.95,27.49,28.58s-17.18,29.3-39.97,29.3c-27.34-.01-40.36-13.57-40.9-33.29Z"/></svg>