<svg width="26" height="26" viewBox="0 0 26 26" fill="none" xmlns="http://www.w3.org/2000/svg">
<g id="_Discord">
<rect x="0.396484" y="0.301586" width="25.3968" height="25.3968" rx="12.6984" fill="#161616"/>
<path id="Vector" d="M18.4569 7.63325C17.4955 7.17851 16.4645 6.84348 15.3866 6.6516C15.3669 6.64789 15.3473 6.65715 15.3372 6.67566C15.2046 6.91875 15.0577 7.23589 14.9549 7.48516C13.7955 7.30623 12.642 7.30623 11.5064 7.48516C11.4036 7.23035 11.2514 6.91875 11.1182 6.67566C11.1081 6.65777 11.0884 6.64851 11.0688 6.6516C9.99146 6.84287 8.96049 7.1779 7.99848 7.63325C7.99015 7.63695 7.98301 7.64312 7.97828 7.65114C6.02274 10.6627 5.48704 13.6003 5.74984 16.5014C5.75102 16.5156 5.75875 16.5292 5.76946 16.5378C7.05966 17.5145 8.30945 18.1075 9.53603 18.5005C9.55566 18.5067 9.57646 18.4993 9.58895 18.4826C9.8791 18.0742 10.1377 17.6435 10.3595 17.1906C10.3726 17.1641 10.3601 17.1326 10.3333 17.1221C9.92309 16.9617 9.53246 16.7661 9.15669 16.544C9.12697 16.5261 9.12459 16.4823 9.15193 16.4613C9.23101 16.4002 9.3101 16.3367 9.38561 16.2725C9.39927 16.2608 9.41831 16.2583 9.43437 16.2657C11.903 17.4275 14.5756 17.4275 17.0151 16.2657C17.0311 16.2577 17.0502 16.2602 17.0644 16.2719C17.1399 16.336 17.219 16.4002 17.2987 16.4613C17.326 16.4823 17.3242 16.5261 17.2945 16.544C16.9188 16.7704 16.5281 16.9617 16.1173 17.1215C16.0905 17.132 16.0786 17.1641 16.0917 17.1906C16.3182 17.6429 16.5769 18.0735 16.8617 18.482C16.8736 18.4993 16.895 18.5067 16.9146 18.5005C18.1471 18.1075 19.3969 17.5145 20.6871 16.5378C20.6984 16.5292 20.7055 16.5162 20.7067 16.502C21.0212 13.148 20.1799 10.2345 18.4765 7.65175C18.4723 7.64312 18.4652 7.63695 18.4569 7.63325ZM10.7281 14.7349C9.98492 14.7349 9.37252 14.0316 9.37252 13.1677C9.37252 12.3039 9.97304 11.6006 10.7281 11.6006C11.4892 11.6006 12.0956 12.3101 12.0837 13.1677C12.0837 14.0316 11.4832 14.7349 10.7281 14.7349ZM15.7403 14.7349C14.9971 14.7349 14.3847 14.0316 14.3847 13.1677C14.3847 12.3039 14.9852 11.6006 15.7403 11.6006C16.5014 11.6006 17.1078 12.3101 17.0959 13.1677C17.0959 14.0316 16.5014 14.7349 15.7403 14.7349Z" fill="#EDECEE"/>
</g>
</svg>
