<svg width="15" height="16" viewBox="0 0 15 16" fill="none" xmlns="http://www.w3.org/2000/svg">
<g id="LinkedIn logo">
<g clip-path="url(#clip0_4977_1838)">
<path id="Vector" d="M0.0849609 2.56895C0.0849609 2.09227 0.251799 1.69902 0.585461 1.38919C0.919124 1.07936 1.3529 0.924444 1.88676 0.924444C2.4111 0.924444 2.83533 1.07697 3.15946 1.38204C3.49313 1.69664 3.65996 2.10657 3.65996 2.61185C3.65996 3.06945 3.4979 3.45077 3.17376 3.75585C2.8401 4.07045 2.40156 4.22775 1.85816 4.22775H1.84386C1.31952 4.22775 0.8953 4.07045 0.571161 3.75585C0.247023 3.44125 0.0849609 3.04561 0.0849609 2.56895ZM0.270861 15.0815V5.52905H3.44546V15.0815H0.270861ZM5.20437 15.0815H8.37897V9.74755C8.37897 9.41388 8.41711 9.15648 8.49337 8.97535C8.62683 8.65121 8.82942 8.37713 9.10112 8.1531C9.37282 7.92906 9.71363 7.81705 10.1236 7.81705C11.1913 7.81705 11.7252 8.53681 11.7252 9.97635V15.0815H14.8998V9.60455C14.8998 8.19361 14.5661 7.1235 13.8988 6.3942C13.2314 5.6649 12.3496 5.30025 11.2533 5.30025C10.0235 5.30025 9.06537 5.82935 8.37897 6.88755V6.91615H8.36467L8.37897 6.88755V5.52905H5.20437C5.22343 5.83411 5.23297 6.78267 5.23297 8.37475C5.23297 9.96681 5.22343 12.2024 5.20437 15.0815Z" fill="#EDECEE"/>
</g>
</g>
<defs>
<clipPath id="clip0_4977_1838">
<rect x="0.0849609" y="0.59259" width="14.8148" height="14.8148" fill="white"/>
</clipPath>
</defs>
</svg>
