<svg width="26" height="26" viewBox="0 0 26 26" fill="none" xmlns="http://www.w3.org/2000/svg">
<g id="_Medium">
<circle id="Ellipse 7" cx="12.6904" cy="12.8016" r="12.5" fill="#161616"/>
<g id="Group 15">
<path id="Vector" d="M14.1381 13.1656C14.1381 15.5031 12.2594 17.398 9.94216 17.398C7.62487 17.398 5.74609 15.5027 5.74609 13.1656C5.74609 10.8285 7.62473 8.93306 9.94216 8.93306C12.2596 8.93306 14.1381 10.8281 14.1381 13.1656Z" fill="#EDECEE"/>
<path id="Vector_2" d="M18.741 13.1656C18.741 15.3659 17.8017 17.1502 16.643 17.1502C15.4842 17.1502 14.5449 15.3659 14.5449 13.1656C14.5449 10.9654 15.4841 9.181 16.6428 9.181C17.8015 9.181 18.7408 10.9648 18.7408 13.1656" fill="#EDECEE"/>
<path id="Vector_3" d="M20.6241 13.1656C20.6241 15.1365 20.2938 16.7352 19.8862 16.7352C19.4786 16.7352 19.1484 15.137 19.1484 13.1656C19.1484 11.1943 19.4787 9.59605 19.8862 9.59605C20.2936 9.59605 20.6241 11.1942 20.6241 13.1656Z" fill="#EDECEE"/>
</g>
</g>
</svg>
