<svg width="26" height="26" viewBox="0 0 26 26" fill="none" xmlns="http://www.w3.org/2000/svg">
<g id="_Twitter">
<rect y="0.301586" width="25.3968" height="25.3968" rx="12.6984" fill="#161616"/>
<path id="Vector" d="M10.3747 19.6984C16.0064 19.6984 19.0858 15.0317 19.0858 10.9873C19.0858 10.854 19.0858 10.7206 19.0794 10.5936C19.6763 10.1619 20.1969 9.62222 20.6096 9.00634C20.0636 9.24761 19.4731 9.41269 18.8509 9.48888C19.4858 9.10793 19.9683 8.51111 20.1969 7.79364C19.6064 8.14285 18.9525 8.39682 18.254 8.5365C17.6953 7.93968 16.9017 7.57142 16.0191 7.57142C14.3302 7.57142 12.9588 8.94285 12.9588 10.6317C12.9588 10.873 12.9842 11.1079 13.0413 11.3302C10.4953 11.2032 8.24134 9.98412 6.73023 8.13015C6.46992 8.58095 6.31753 9.10793 6.31753 9.66666C6.31753 10.727 6.85722 11.6667 7.68261 12.2127C7.18103 12.2 6.71119 12.0603 6.29849 11.8317C6.29849 11.8444 6.29849 11.8571 6.29849 11.8698C6.29849 13.3556 7.35246 14.5873 8.75563 14.873C8.50166 14.9429 8.22865 14.9809 7.94928 14.9809C7.75246 14.9809 7.56198 14.9619 7.3715 14.9238C7.7588 16.1429 8.88896 17.0254 10.2286 17.0508C9.18103 17.8698 7.86039 18.3587 6.42547 18.3587C6.17785 18.3587 5.93658 18.346 5.69531 18.3143C7.03499 19.1905 8.64769 19.6984 10.3747 19.6984Z" fill="#EDECEE"/>
</g>
</svg>
