<svg width="211" height="44" viewBox="0 0 211 44" fill="none" xmlns="http://www.w3.org/2000/svg">
<g id="Capa_1" clip-path="url(#clip0_3800_4318)">
<path id="Vector" d="M73.9862 43.6599H73.8756L73.8019 43.6353C73.5806 43.6107 73.384 43.5739 73.2119 43.537H73.1627C71.8722 43.2914 70.7046 42.5667 69.918 41.5105V43.4511H66.2676V24.2294H69.918V31.0092C70.8521 29.7564 72.3024 28.9826 73.8633 28.8844H73.9616C74.2074 28.8475 74.4533 28.8352 74.6991 28.8352C75.879 28.823 77.0343 29.1423 78.0545 29.7441C79.0746 30.3705 79.8858 31.2671 80.4266 32.3234C81.0288 33.527 81.3238 34.8658 81.2992 36.2046C81.3238 37.5556 81.0288 38.8944 80.4266 40.1103C79.8981 41.1911 79.0746 42.1 78.0545 42.751C77.0466 43.3774 75.879 43.6967 74.6991 43.6844C74.4778 43.6844 74.232 43.6844 73.9862 43.6476V43.6599ZM71.8722 32.5322C71.2822 32.8884 70.7906 33.3919 70.4711 34.006C69.7582 35.4308 69.7582 37.1012 70.4711 38.5259C70.8029 39.14 71.2822 39.6436 71.8722 39.9998C72.4376 40.3314 73.0767 40.5033 73.7404 40.5033C74.4041 40.5033 75.0555 40.3314 75.6332 39.9875C76.2231 39.6313 76.7148 39.1154 77.0466 38.5136C77.4153 37.8135 77.5997 37.0275 77.5751 36.2291C77.5997 35.4431 77.4153 34.6693 77.0466 33.9815C76.7271 33.3797 76.2354 32.8638 75.6332 32.5199C75.0555 32.2006 74.4041 32.0286 73.7404 32.0286C73.089 32.0286 72.4376 32.2006 71.8722 32.5445V32.5322ZM90.2469 43.6844H90.2346C89.067 43.6844 87.9116 43.3651 86.9161 42.751C85.896 42.1 85.0725 41.1911 84.544 40.1103C83.9417 38.8944 83.6468 37.5556 83.6713 36.2046C83.6468 34.8658 83.9417 33.5393 84.544 32.3357C85.6133 30.1617 87.8379 28.7861 90.2592 28.823C90.4804 28.823 90.7139 28.8352 90.9843 28.8598H91.1195C92.6682 28.9949 94.0939 29.7687 95.028 30.9969V29.044H98.7029V43.4388H95.028V41.4859C93.8973 42.9475 92.1151 43.7704 90.2592 43.6721L90.2469 43.6844ZM89.3128 32.5076C88.7228 32.8515 88.2435 33.3551 87.9117 33.9446C87.5429 34.6324 87.3586 35.4062 87.3832 36.1923C87.3709 36.9783 87.5552 37.7644 87.9117 38.4645C88.2312 39.0786 88.7228 39.5944 89.3251 39.9629C89.8905 40.3068 90.5296 40.4788 91.1933 40.4788C91.857 40.4788 92.5207 40.3068 93.0983 39.9752C93.6883 39.6313 94.1799 39.1277 94.5118 38.5259C95.2124 37.0889 95.2124 35.4185 94.5118 33.9815C94.1922 33.3797 93.7006 32.8761 93.0983 32.5322C92.5207 32.2006 91.8693 32.0286 91.1933 32.0286C90.5296 32.0286 89.8905 32.1883 89.3128 32.5199V32.5076ZM129.344 43.4511L124.44 37.3222V43.4511H120.789V24.2294H124.44V35.1729L129.295 29.0686H134.027L127.672 36.2905L134.088 43.4633H129.344V43.4511ZM113.022 43.4511V35.5045C113.083 34.5465 112.776 33.6007 112.161 32.8638C111.547 32.2374 110.699 31.8935 109.814 31.9426C108.929 31.8935 108.056 32.2374 107.429 32.8638C106.803 33.6007 106.495 34.5465 106.557 35.5045V43.4511H102.906V29.0563H106.557V30.6162C107.933 28.7738 110.871 28.8475 110.871 28.8475H110.92C112.481 28.7861 113.993 29.3757 115.087 30.4688C116.205 31.7093 116.77 33.3428 116.672 35.0009V43.4511H113.022ZM201.614 18.248C200.741 17.8672 199.967 17.2777 199.389 16.5162C198.848 15.8161 198.541 14.9809 198.492 14.0966H202.167C202.24 14.6493 202.535 15.1529 202.99 15.4722C203.506 15.8529 204.133 16.0372 204.772 16.0126C205.35 16.0495 205.915 15.9021 206.395 15.595C206.763 15.3617 206.985 14.9563 206.985 14.5265C206.985 14.0597 206.702 13.6421 206.272 13.4702C205.534 13.1509 204.772 12.8929 203.986 12.7087C203.088 12.4999 202.203 12.2297 201.343 11.8981C200.667 11.6156 200.053 11.1857 199.586 10.6207C199.057 9.96977 198.799 9.14686 198.836 8.31167C198.836 7.52561 199.069 6.76411 199.524 6.12544C200.028 5.43763 200.716 4.89722 201.503 4.5656C202.462 4.16028 203.494 3.97605 204.539 4.00062C206.026 3.92692 207.488 4.38136 208.656 5.29025C209.689 6.15 210.303 7.41507 210.352 8.75383H206.862C206.825 8.21341 206.567 7.72212 206.149 7.3905C205.657 7.03432 205.055 6.85009 204.44 6.88693C203.912 6.85009 203.371 6.98519 202.916 7.2554C202.572 7.47648 202.363 7.85723 202.388 8.26254C202.388 8.74155 202.671 9.18371 203.113 9.36794C203.838 9.69956 204.6 9.95749 205.387 10.1294C206.259 10.3382 207.132 10.6084 207.968 10.9401C208.644 11.2226 209.246 11.6524 209.725 12.2174C210.242 12.8684 210.512 13.679 210.487 14.5142C210.487 15.3125 210.254 16.0986 209.799 16.7495C209.295 17.4373 208.607 17.9778 207.82 18.2971C206.862 18.6901 205.842 18.8744 204.809 18.8498C203.715 18.8744 202.634 18.6533 201.626 18.2111L201.614 18.248ZM173.922 17.9655C172.829 17.3637 171.931 16.4548 171.341 15.3494C170.715 14.1457 170.395 12.807 170.42 11.4559C170.395 10.0926 170.702 8.74155 171.329 7.53789C171.907 6.44477 172.792 5.53589 173.886 4.93406C176.221 3.73041 178.999 3.71812 181.346 4.9095C182.415 5.48676 183.288 6.3588 183.878 7.41507C184.492 8.55731 184.8 9.84694 184.775 11.1366C184.775 11.6033 184.738 12.07 184.677 12.5367H174.119C174.156 13.4579 174.549 14.3422 175.213 14.9809C175.864 15.5705 176.712 15.8898 177.585 15.8652C178.814 15.9389 179.969 15.2388 180.473 14.1212H184.406C184.001 15.4845 183.153 16.6881 182.01 17.5356C180.744 18.4568 179.22 18.9235 177.659 18.8744C176.356 18.8989 175.065 18.5796 173.922 17.9532V17.9655ZM175.274 7.83266C174.635 8.42221 174.23 9.23284 174.144 10.1049H181.002C181.014 9.24512 180.645 8.42221 179.982 7.85723C179.306 7.29225 178.445 6.98519 177.56 7.00976C176.725 6.98519 175.914 7.27996 175.287 7.83266H175.274ZM128.766 17.9655C127.66 17.3637 126.75 16.4548 126.148 15.3494C125.497 14.158 125.165 12.807 125.202 11.4559C125.177 10.0926 125.509 8.75383 126.173 7.56246C126.8 6.45706 127.721 5.56046 128.84 4.94635C131.212 3.71812 134.027 3.71812 136.399 4.94635C137.517 5.54817 138.439 6.45706 139.066 7.56246C139.73 8.75383 140.074 10.0926 140.049 11.4559C140.074 12.8192 139.73 14.1703 139.041 15.3494C138.39 16.4548 137.456 17.3514 136.337 17.9655C135.157 18.5919 133.855 18.8989 132.515 18.8867C131.212 18.8989 129.909 18.5919 128.766 17.9655ZM129.958 8.29939C129.209 9.17142 128.828 10.3014 128.901 11.4559C128.828 12.5982 129.196 13.7281 129.934 14.6124C130.597 15.3371 131.544 15.7424 132.527 15.7178C133.179 15.7178 133.818 15.5582 134.395 15.2388C134.985 14.9072 135.477 14.4036 135.784 13.7895C136.153 13.0649 136.325 12.2665 136.3 11.4559C136.374 10.3014 135.981 9.17142 135.219 8.29939C134.531 7.57474 133.572 7.18171 132.576 7.19399C131.593 7.16943 130.634 7.57474 129.958 8.28711V8.29939ZM102.833 18.248C101.96 17.8672 101.186 17.2777 100.596 16.5162C100.055 15.8161 99.7477 14.9809 99.6985 14.0966H103.373C103.447 14.6493 103.742 15.1529 104.197 15.4722C104.713 15.8529 105.34 16.0372 105.979 16.0126C106.557 16.0495 107.122 15.9021 107.614 15.595C107.982 15.3617 108.204 14.9563 108.204 14.5265C108.204 14.0597 107.921 13.6421 107.491 13.4702C106.753 13.1509 105.991 12.8929 105.217 12.7087C104.32 12.4999 103.435 12.2297 102.575 11.8981C101.886 11.6156 101.284 11.1857 100.805 10.6207C100.276 9.96977 100.018 9.14686 100.067 8.31167C100.067 7.52561 100.301 6.76411 100.756 6.12544C101.259 5.43763 101.948 4.89722 102.734 4.5656C103.693 4.16028 104.725 3.97605 105.77 4.00062C107.257 3.92692 108.72 4.38136 109.888 5.29025C110.92 6.15 111.535 7.41507 111.584 8.75383H108.093C108.056 8.21341 107.798 7.72212 107.38 7.3905C106.889 7.03432 106.286 6.85009 105.672 6.88693C105.143 6.85009 104.603 6.98519 104.148 7.2554C103.804 7.47648 103.595 7.85723 103.619 8.26254C103.619 8.74155 103.902 9.18371 104.344 9.36794C105.07 9.69956 105.832 9.95749 106.618 10.1294C107.491 10.3382 108.363 10.6084 109.199 10.9401C109.875 11.2226 110.477 11.6524 110.945 12.2174C111.461 12.8684 111.731 13.679 111.707 14.5142C111.707 15.3125 111.473 16.0986 111.018 16.7495C110.514 17.4373 109.826 17.9778 109.039 18.2971C108.081 18.6901 107.061 18.8744 106.028 18.8498C104.934 18.8744 103.853 18.6533 102.857 18.2111L102.833 18.248ZM68.7626 17.9655C67.6933 17.3514 66.8084 16.4548 66.2307 15.3739C65.6039 14.1703 65.2844 12.8192 65.3212 11.4682C65.2966 10.1049 65.6039 8.76611 66.2307 7.56246C66.8084 6.46934 67.6933 5.57274 68.7626 4.95863C69.8934 4.33224 71.1716 4.0129 72.4622 4.03746C74.0477 3.97605 75.6209 4.44278 76.9114 5.37622C78.1159 6.30967 78.9517 7.63615 79.2712 9.13458H75.3382C75.1538 8.54503 74.7851 8.02918 74.2812 7.66071C73.7404 7.29225 73.089 7.10801 72.4376 7.13258C71.4789 7.09573 70.5571 7.51333 69.9548 8.26254C69.2911 9.19599 68.9716 10.326 69.0453 11.4682C68.9716 12.5982 69.2911 13.7281 69.9548 14.6493C70.5571 15.3985 71.4789 15.8161 72.4376 15.7793C73.7527 15.8898 74.9572 15.0669 75.3259 13.8018H79.259C78.9148 15.2757 78.079 16.5899 76.8868 17.511C75.6086 18.4568 74.0477 18.9481 72.4499 18.8867C71.1593 18.9112 69.8811 18.5919 68.7503 17.9655H68.7626ZM88.2558 18.8375C87.2111 18.8621 86.1787 18.6164 85.2568 18.1252C84.3842 17.6461 83.6713 16.9092 83.2166 16.0249C82.7004 14.9932 82.4423 13.8632 82.4791 12.7087V4.27082H86.1295V12.1928C86.068 13.1509 86.3753 14.0966 86.9898 14.8335C87.6044 15.4599 88.4524 15.8038 89.3374 15.7547C90.2223 15.8038 91.0827 15.4599 91.7095 14.8335C92.324 14.0966 92.6313 13.1509 92.5699 12.1928V4.27082H96.2448V18.6656H92.5576V17.0812C91.6235 18.1252 90.3206 18.7393 88.9195 18.813H88.8826C88.5754 18.8375 88.3541 18.8498 88.2804 18.8498H88.2558V18.8375ZM188.081 18.6533V4.27082H191.732V5.90436C192.826 4.62701 194.473 3.9392 196.156 4.06203H196.169V7.88179H195.21C194.276 7.8081 193.342 8.10287 192.617 8.69242C191.953 9.4662 191.633 10.4856 191.744 11.4928V18.6656H188.094L188.081 18.6533ZM163.586 18.6533V10.7067C163.647 9.76097 163.34 8.8398 162.726 8.11515C162.111 7.50104 161.251 7.16943 160.378 7.21855C159.505 7.16943 158.645 7.50104 158.018 8.11515C157.391 8.82752 157.084 9.76097 157.146 10.7067V18.6533H153.495V10.7067C153.557 9.76097 153.249 8.8398 152.635 8.11515C152.02 7.50104 151.16 7.16943 150.287 7.21855C149.402 7.16943 148.542 7.50104 147.903 8.11515C147.276 8.82752 146.969 9.76097 147.03 10.7067V18.6533H143.38V4.27082H147.03V5.90436C147.755 5.02004 148.776 4.41821 149.894 4.2217C150.017 4.19713 150.14 4.17257 150.263 4.148H150.349C150.496 4.11116 150.656 4.09887 150.816 4.08659H150.914C151.037 4.08659 151.148 4.07431 151.271 4.07431H151.393C153.397 4.0129 155.29 5.02004 156.347 6.72727C157.256 5.26568 158.805 4.29539 160.513 4.12344H160.538C160.796 4.09887 161.042 4.07431 161.3 4.07431C162.898 4.00062 164.446 4.59016 165.589 5.69556C166.732 6.92378 167.322 8.55731 167.212 10.2277V18.6779H163.574L163.586 18.6533ZM120.531 18.6533C117.459 18.6533 115.922 17.1671 115.922 14.1826V7.20627H113.673V4.20941H115.922V0.708984H119.597V4.2217H122.83V7.21855H119.597V14.2194C119.56 14.6002 119.696 14.9809 119.954 15.2757C120.298 15.5213 120.716 15.6441 121.146 15.6073H122.842V18.6779H120.544L120.531 18.6533Z" fill="#0A225E"/>
<path id="Vector_2" d="M33.0336 43.5247H14.0444C6.57164 43.537 0.512291 37.4942 0.5 30.0266C0.5 27.8895 1.00392 25.777 1.99947 23.8732C1.00392 21.9817 0.5 19.8692 0.5 17.7198C0.512291 10.2645 6.57164 4.22168 14.0444 4.22168H33.0336C40.4941 4.22168 46.5535 10.2522 46.5781 17.7198C46.5781 19.8569 46.0742 21.9695 45.0786 23.8732C46.0619 25.777 46.5781 27.8895 46.5781 30.0266C46.5658 37.4819 40.5064 43.5247 33.0459 43.5247H33.0336ZM24.7251 31.218V41.1543H33.0336C39.1913 41.1543 44.1814 36.18 44.1937 30.0266C44.1937 28.737 43.9601 27.4596 43.5177 26.2437C40.9489 29.3879 37.1019 31.2057 33.0336 31.2057H24.7251V31.218ZM3.5604 26.256C1.44639 32.004 4.40846 38.3785 10.1605 40.4788C11.4019 40.9332 12.717 41.1666 14.0444 41.1543H22.353V31.218H14.0444C9.97618 31.218 6.12917 29.4002 3.5604 26.256ZM14.0444 18.9112C10.308 18.9112 6.82974 20.7781 4.7526 23.8855C6.81745 26.9929 10.308 28.8598 14.0444 28.8598H33.0336C36.77 28.8598 40.2483 26.9929 42.3255 23.8855C40.2606 20.7781 36.77 18.9112 33.0336 18.9112H14.0444ZM24.7374 6.60443V16.5407H33.0459C37.1142 16.5407 40.9612 18.3585 43.53 21.5027C43.9724 20.2868 44.206 19.0095 44.206 17.7198C44.1937 11.5664 39.2036 6.59215 33.0459 6.59215H24.7374V6.60443ZM14.0444 6.60443C7.88675 6.60443 2.8967 11.5787 2.88441 17.7321C2.88441 19.0217 3.11793 20.2991 3.5604 21.515C6.12917 18.3708 9.97618 16.5407 14.0444 16.553H22.353V6.60443H14.0444Z" fill="#009DFF"/>
</g>
<defs>
<clipPath id="clip0_3800_4318">
<rect width="210" height="43" fill="white" transform="translate(0.5 0.708984)"/>
</clipPath>
</defs>
</svg>
