<svg width="65" height="65" viewBox="0 0 65 65" fill="none" xmlns="http://www.w3.org/2000/svg">
<path id="Union" fill-rule="evenodd" clip-rule="evenodd" d="M13.3708 10.1106C19.1388 5.25071 26.511 2.71809 34.046 3.00771C34.5979 3.02892 35.0624 2.59874 35.0837 2.04686C35.1049 1.49498 34.6747 1.0304 34.1228 1.00919C26.09 0.700429 18.231 3.40039 12.0821 8.58111C5.93326 13.7618 1.93671 21.0507 0.873602 29.0228C-0.189508 36.995 1.75723 45.0772 6.33333 51.6897C10.6723 57.9595 17.3511 62.4662 24.6768 64.4622C25.961 64.8122 27.1589 63.8205 27.1589 62.5469V29.7252H31.2905C32.0603 29.7252 32.5414 28.8919 32.1565 28.2252L27.0249 19.337C26.64 18.6703 25.6777 18.6703 25.2928 19.337L20.1612 28.2252C19.7763 28.8919 20.2574 29.7252 21.0272 29.7252H25.1589V62.5207C18.2734 60.6339 12.0223 56.3956 7.97791 50.5515C3.68504 44.3484 1.85871 36.7662 2.85605 29.2872C3.8534 21.8083 7.60269 14.9705 13.3708 10.1106ZM30.9534 62.7824C38.4884 63.0721 45.8606 60.5394 51.6286 55.6796C57.3967 50.8197 61.146 43.9819 62.1433 36.5029C63.1407 29.024 61.3144 21.4418 57.0215 15.2386C52.9771 9.39457 46.726 5.15628 39.8405 3.26948V36.0649H44.0297C44.7995 36.0649 45.2806 36.8983 44.8957 37.5649L39.7641 46.4532C39.3792 47.1198 38.417 47.1198 38.0321 46.4532L32.9004 37.5649C32.5155 36.8983 32.9966 36.0649 33.7664 36.0649H37.8405V3.24322C37.8405 1.96962 39.0384 0.977989 40.3226 1.3279C47.6483 3.32397 54.3271 7.83066 58.6661 14.1005C63.2422 20.7129 65.1889 28.7952 64.1258 36.7673C63.0627 44.7394 59.0661 52.0283 52.9173 57.209C46.7684 62.3898 38.9094 65.0897 30.8766 64.781C30.3247 64.7597 29.8945 64.2952 29.9157 63.7433C29.9369 63.1914 30.4015 62.7612 30.9534 62.7824Z" fill="#6200EE"/>
</svg>
