<?xml version="1.0" encoding="UTF-8"?><svg id="Layer_2" xmlns="http://www.w3.org/2000/svg" viewBox="0 0 229.34 200"><defs><style>.cls-1{fill:#111;stroke-width:0px;}</style></defs><g id="Logos"><path class="cls-1" d="m36.47,189.57c4.35,3.8,8.97,7.29,13.84,10.43,17.39-14.7,39.86-23.58,64.36-23.58s46.97,8.88,64.36,23.58c4.87-3.14,9.49-6.63,13.84-10.43-21.49-19.43-49.03-30.06-78.2-30.06s-56.72,10.63-78.2,30.06Z"/><path class="cls-1" d="m14.1,163.46c3.08,4.88,6.51,9.51,10.25,13.88,24.74-22.63,56.57-35.03,90.32-35.03s65.58,12.4,90.32,35.03c3.74-4.36,7.17-9,10.25-13.88-27.72-24.77-63.1-38.33-100.57-38.33s-72.85,13.55-100.57,38.33Z"/><path class="cls-1" d="m114.67,23.58c-24.5,0-46.97-8.88-64.36-23.58-4.87,3.14-9.49,6.63-13.84,10.43,21.49,19.43,49.03,30.06,78.2,30.06s56.72-10.63,78.2-30.06c-4.35-3.8-8.97-7.29-13.84-10.43-17.39,14.7-39.86,23.58-64.36,23.58Z"/><path class="cls-1" d="m114.67,57.69c-33.75,0-65.58-12.4-90.32-35.03-3.74,4.36-7.17,9-10.25,13.88,27.72,24.77,63.1,38.33,100.57,38.33s72.85-13.55,100.57-38.33c-3.08-4.88-6.51-9.51-10.25-13.88-24.74,22.63-56.57,35.03-90.32,35.03Z"/><path class="cls-1" d="m115.92,91.64c-.42,0-.83,0-1.25,0s-.83,0-1.25,0c-39.81-.29-77.44-14.34-107.45-39.91-2.39,5.37-4.39,10.96-5.97,16.71,13.04,10.36,27.36,18.87,42.8,25.4,5.51,2.33,11.1,4.38,16.76,6.15-5.66,1.77-11.25,3.82-16.76,6.15-15.44,6.53-29.76,15.04-42.8,25.4,1.58,5.76,3.58,11.34,5.97,16.71,30.01-25.57,67.64-39.62,107.45-39.91.42,0,.83,0,1.25,0s.83,0,1.25,0c39.81.29,77.44,14.34,107.45,39.91,2.39-5.37,4.39-10.96,5.97-16.71-13.04-10.36-27.36-18.87-42.8-25.4-5.51-2.33-11.1-4.38-16.76-6.15,5.66-1.77,11.25-3.82,16.76-6.15,15.44-6.53,29.76-15.04,42.8-25.4-1.58-5.76-3.58-11.34-5.97-16.71-30.01,25.57-67.64,39.62-107.45,39.91Z"/></g></svg>