<?xml version="1.0" standalone="no"?>
<!DOCTYPE svg PUBLIC "-//W3C//DTD SVG 20010904//EN"
 "http://www.w3.org/TR/2001/REC-SVG-20010904/DTD/svg10.dtd">
<svg version="1.0" xmlns="http://www.w3.org/2000/svg"
 width="500.000000pt" height="500.000000pt" viewBox="0 0 500.000000 500.000000"
 preserveAspectRatio="xMidYMid meet">
<metadata>
Created by potrace 1.14, written by Peter Selinger 2001-2017
</metadata>
<g transform="translate(0.000000,500.000000) scale(0.100000,-0.100000)"
fill="#000000" stroke="none">
<path d="M1044 4564 c-88 -63 -197 -152 -202 -164 -2 -4 35 -39 81 -77 347
-286 743 -464 1202 -540 157 -26 593 -26 750 0 459 76 855 254 1202 540 46 38
83 73 81 77 -8 21 -270 220 -290 220 -5 0 -44 -27 -87 -60 -299 -228 -654
-373 -1031 -421 -121 -15 -377 -15 -500 0 -376 48 -732 193 -1031 421 -43 33
-82 60 -87 60 -5 0 -45 -25 -88 -56z"/>
<path d="M524 4072 c-30 -38 -80 -104 -110 -148 l-54 -79 33 -28 c227 -199
526 -391 790 -508 287 -128 561 -206 902 -256 186 -27 669 -25 862 5 613 92
1130 321 1597 706 l95 78 -26 41 c-37 59 -157 219 -181 240 -20 18 -22 16
-123 -68 -183 -153 -430 -308 -646 -405 -986 -441 -2151 -283 -2971 404 -56
47 -105 86 -107 86 -3 0 -30 -31 -61 -68z"/>
<path d="M165 3463 c-39 -98 -95 -264 -95 -285 0 -28 244 -204 463 -332 190
-112 530 -266 710 -322 31 -10 57 -21 57 -24 0 -3 -26 -14 -57 -24 -180 -56
-520 -210 -710 -322 -223 -130 -463 -304 -463 -333 0 -23 70 -228 102 -299
l23 -52 100 81 c207 165 467 326 715 440 767 353 1626 422 2450 195 439 -120
890 -351 1245 -635 l100 -81 23 51 c42 95 92 251 92 289 0 36 -4 41 -87 103
-117 85 -246 171 -366 241 -190 112 -530 266 -709 322 -32 10 -58 21 -58 24 0
3 26 14 58 24 179 56 519 210 709 322 120 70 249 156 366 241 83 62 87 67 87
103 0 38 -50 194 -92 289 l-23 51 -100 -81 c-1018 -815 -2440 -996 -3645 -462
-294 130 -558 293 -836 518 l-32 26 -27 -68z"/>
<path d="M2235 1963 c-657 -57 -1268 -306 -1779 -727 l-95 -78 26 -41 c37 -59
157 -219 181 -240 20 -18 22 -16 123 68 183 153 430 308 646 405 986 441 2151
283 2972 -405 101 -84 103 -86 123 -68 24 21 144 181 181 240 l26 41 -95 78
c-396 327 -848 549 -1337 658 -232 52 -372 67 -657 71 -146 1 -287 1 -315 -2z"/>
<path d="M2260 1234 c-298 -36 -539 -101 -790 -213 -192 -86 -440 -246 -590
-380 l-45 -40 30 -26 c55 -47 230 -177 251 -187 18 -9 34 -1 102 51 300 229
654 373 1032 422 52 6 165 12 250 12 85 0 198 -6 250 -12 378 -49 732 -193
1032 -422 68 -52 84 -60 102 -51 21 10 196 140 251 187 l30 26 -45 40 c-263
235 -634 429 -1000 525 -198 52 -318 66 -580 69 -135 2 -261 1 -280 -1z"/>
</g>
</svg>
