<svg width="55" height="55" viewBox="0 0 55 55" fill="none" xmlns="http://www.w3.org/2000/svg">
<path id="Union" fill-rule="evenodd" clip-rule="evenodd" d="M10.069 0.767923L9.56898 0.479248L9.06898 0.767923L0.994141 5.42994L0.494141 5.71861V6.29596V15.62V16.1973L0.994141 16.486L9.06898 21.148L9.56898 21.4367L10.069 21.148L18.1438 16.486L18.6438 16.1973V15.62V6.29596V5.71861L18.1438 5.42994L10.069 0.767923ZM2.49414 15.0426V6.87331L9.56898 2.78865L16.6438 6.87331V15.0426L9.56898 19.1273L2.49414 15.0426ZM18.8942 4.50272L25.3493 0.77587V3.75285H34.6711C35.0853 3.75285 35.4211 4.08864 35.4211 4.50285C35.4211 4.91707 35.0853 5.25285 34.6711 5.25285H25.3493V8.22957L18.8942 4.50272ZM34.6711 10.2408L28.216 13.9676V10.9908H20.3267C19.9125 10.9908 19.5767 10.6551 19.5767 10.2408C19.5767 9.82663 19.9125 9.49084 20.3267 9.49084H28.216V6.51394L34.6711 10.2408ZM45.4306 0.479248L45.9306 0.767923L54.0054 5.42994L54.5054 5.71861V6.29596V15.62V16.1973L54.0054 16.486L45.9306 21.148L45.4306 21.4367L44.9306 21.148L36.8557 16.486L36.3557 16.1973V15.62V6.29596V5.71861L36.8557 5.42994L44.9306 0.767923L45.4306 0.479248ZM38.3557 6.87331V15.0426L45.4306 19.1273L52.5054 15.0426V6.87331L45.4306 2.78865L38.3557 6.87331ZM27.4989 54.7091C33.0443 54.7091 37.5402 50.2132 37.5402 44.6679C37.5402 39.1225 33.0443 34.6266 27.4989 34.6266C21.9536 34.6266 17.4577 39.1225 17.4577 44.6679C17.4577 50.2132 21.9536 54.7091 27.4989 54.7091ZM32.5105 41.0717C32.901 40.6812 32.901 40.048 32.5105 39.6575C32.1199 39.267 31.4868 39.267 31.0963 39.6575L27.5 43.2538L23.9037 39.6575C23.5131 39.267 22.88 39.267 22.4895 39.6575C22.0989 40.048 22.0989 40.6812 22.4895 41.0717L26.0857 44.668L22.4895 48.2643C22.0989 48.6548 22.0989 49.288 22.4895 49.6785C22.88 50.069 23.5131 50.069 23.9037 49.6785L27.5 46.0822L31.0963 49.6785C31.4868 50.069 32.1199 50.069 32.5105 49.6785C32.901 49.288 32.901 48.6548 32.5105 48.2643L28.9142 44.668L32.5105 41.0717ZM7.76435 22.1658C8.31098 22.2446 8.69026 22.7516 8.61149 23.2982C8.12406 26.6807 8.55395 30.1321 9.85625 33.2917C11.1585 36.4513 13.2855 39.2032 16.0148 41.2599C16.4558 41.5923 16.544 42.2193 16.2116 42.6603C15.8792 43.1014 15.2522 43.1895 14.8111 42.8572C11.7958 40.5849 9.44594 37.5446 8.00716 34.0538C6.56837 30.5631 6.09342 26.75 6.63194 23.0129C6.71071 22.4663 7.21771 22.087 7.76435 22.1658ZM46.3878 23.2982C46.309 22.7516 46.6883 22.2446 47.2349 22.1658C47.7816 22.087 48.2886 22.4663 48.3673 23.0129C48.9058 26.75 48.4309 30.5631 46.9921 34.0538C45.5533 37.5446 43.2035 40.5849 40.1881 42.8572C39.7471 43.1895 39.1201 43.1014 38.7877 42.6603C38.4553 42.2193 38.5434 41.5923 38.9845 41.2599C41.7138 39.2032 43.8407 36.4513 45.143 33.2917C46.4453 30.1321 46.8752 26.6807 46.3878 23.2982Z" fill="#9747FF"/>
</svg>
