<?xml version="1.0" encoding="UTF-8"?><svg id="Capa_1" xmlns="http://www.w3.org/2000/svg" viewBox="0 0 1920 424"><defs><style>.cls-1{fill:#6200ec;}</style></defs><g><path class="cls-1" d="m77.28,401.82c9.21,8.05,19.01,15.44,29.33,22.1,36.86-31.15,84.46-49.96,136.39-49.96s99.53,18.81,136.39,49.96c10.32-6.66,20.12-14.05,29.33-22.1-45.53-41.17-103.89-63.7-165.72-63.7s-120.19,22.53-165.72,63.7Z"/><path class="cls-1" d="m29.88,346.48c6.53,10.33,13.8,20.16,21.72,29.4,52.42-47.96,119.89-74.23,191.4-74.23s138.98,26.27,191.4,74.23c7.92-9.25,15.19-19.07,21.72-29.4-58.73-52.5-133.72-81.22-213.12-81.22s-154.39,28.72-213.12,81.22Z"/><path class="cls-1" d="m243,50.05C191.08,50.05,143.47,31.24,106.61.09c-10.32,6.66-20.12,14.05-29.33,22.1,45.53,41.17,103.89,63.7,165.72,63.7s120.19-22.53,165.72-63.7c-9.21-8.05-19.01-15.44-29.33-22.1-36.86,31.15-84.46,49.96-136.39,49.96Z"/><path class="cls-1" d="m243,122.35c-71.51,0-138.98-26.27-191.4-74.23-7.92,9.25-15.19,19.07-21.72,29.4,58.73,52.5,133.72,81.22,213.12,81.22s154.39-28.72,213.12-81.22c-6.53-10.33-13.8-20.16-21.72-29.4-52.42,47.96-119.89,74.23-191.4,74.23Z"/><path class="cls-1" d="m245.64,194.29c-.88,0-1.76-.02-2.64-.02s-1.76.01-2.64.02c-84.37-.61-164.11-30.4-227.71-84.57C7.59,121.11,3.35,132.94,0,145.14c27.63,21.95,57.99,39.99,90.7,53.83,11.67,4.94,23.51,9.28,35.51,13.03-12,3.75-23.84,8.1-35.51,13.03C57.99,238.87,27.63,256.91,0,278.86c3.35,12.2,7.59,24.03,12.65,35.42,63.59-54.18,143.34-83.96,227.71-84.57.88,0,1.76.02,2.64.02s1.76-.01,2.64-.02c84.37.61,164.11,30.4,227.71,84.57,5.06-11.39,9.3-23.22,12.65-35.42-27.63-21.95-57.99-39.99-90.7-53.83-11.67-4.94-23.51-9.28-35.51-13.03,12-3.75,23.84-8.1,35.51-13.03,32.71-13.84,63.07-31.88,90.7-53.83-3.35-12.2-7.59-24.03-12.65-35.42-63.59,54.18-143.34,83.96-227.71,84.57Z"/></g><g><path class="cls-1" d="m1640.44,121.9c-33.59,0-56.29,13.72-70.01,32.17h-1.89l-4.73-27.91h-56.76v245.98h63.39v-136.23c0-35,20.34-56.29,50.61-56.29s45.41,18.45,45.41,49.2v143.33h63.39v-161.31c0-54.87-35-88.93-89.4-88.93Z"/><polygon class="cls-1" points="629.35 372.14 692.82 372.14 692.82 241.95 837.83 241.95 837.83 184.97 692.82 184.97 692.82 104.82 852.66 104.82 852.66 47.83 629.35 47.83 629.35 372.14"/><path class="cls-1" d="m1915.27,317.26c-7.1,2.36-14.66,3.78-23.65,3.78-21.76,0-31.69-9.93-31.69-33.11v-107.85h59.13v-53.93h-59.13V61.35h-4.73l-56.29,13.25v51.56h-42.57v53.93h40.21v121.57c0,43.52,22.71,74.74,77.11,74.74,20.81,0,38.79-3.78,46.36-6.15v-52.98h-4.73Z"/><path class="cls-1" d="m1359.13,121.9c-79,0-117.79,57.71-117.79,127.72s42.57,126.77,118.73,126.77c63.39,0,103.6-36.42,110.22-80.89h-61.97c-4.73,15.14-19.87,28.38-48.25,28.38-36.42,0-53.45-23.65-53.93-57.24h167.45v-24.6c0-67.17-41.15-120.15-114.47-120.15Zm-52.51,102.65c1.42-27.91,17.03-49.67,52.51-49.67,33.11,0,48.72,21.76,49.67,49.67h-102.18Z"/><rect class="cls-1" x="890.73" y="47.61" width="58.77" height="324.53"/><path class="cls-1" d="m1145.27,266.65c0,31.22-13.25,50.62-45.41,50.62s-45.88-19.39-45.88-50.62V126.16h-63.39v150.43c0,52.98,34.06,99.81,108.8,99.81h.47c74.27,0,108.8-46.83,108.8-99.81V126.16h-63.39v140.49Z"/></g></svg>